G04 #@! TF.GenerationSoftware,KiCad,Pcbnew,5.1.2*
G04 #@! TF.CreationDate,2019-08-19T21:30:06+02:00*
G04 #@! TF.ProjectId,Battery-Tester,42617474-6572-4792-9d54-65737465722e,rev?*
G04 #@! TF.SameCoordinates,Original*
G04 #@! TF.FileFunction,Copper,L2,Bot*
G04 #@! TF.FilePolarity,Positive*
%FSLAX46Y46*%
G04 Gerber Fmt 4.6, Leading zero omitted, Abs format (unit mm)*
G04 Created by KiCad (PCBNEW 5.1.2) date 2019-08-19 21:30:06*
%MOMM*%
%LPD*%
G04 APERTURE LIST*
%ADD10O,1.700000X1.700000*%
%ADD11R,1.700000X1.700000*%
%ADD12C,2.100000*%
%ADD13R,2.100000X2.100000*%
%ADD14C,0.800000*%
%ADD15C,0.200000*%
G04 APERTURE END LIST*
D10*
X103540000Y-126500000D03*
D11*
X101000000Y-126500000D03*
D10*
X90760000Y-89500000D03*
X93300000Y-89500000D03*
X95840000Y-89500000D03*
X98380000Y-89500000D03*
X100920000Y-89500000D03*
X103460000Y-89500000D03*
D11*
X106000000Y-89500000D03*
D12*
X88460000Y-126500000D03*
D13*
X91000000Y-126500000D03*
D14*
X90500000Y-118500000D03*
X95250000Y-117500000D03*
X100000000Y-116500000D03*
X95000000Y-120500000D03*
X100312500Y-120437500D03*
X88062500Y-100437500D03*
X95062500Y-100437500D03*
X102000000Y-100500000D03*
X109062500Y-100437500D03*
X84750000Y-87500000D03*
X108000000Y-88500000D03*
X98000000Y-128000000D03*
D15*
G36*
X114575001Y-129575000D02*
G01*
X83425000Y-129575000D01*
X83425000Y-127559741D01*
X87612391Y-127559741D01*
X87729491Y-127760655D01*
X87989469Y-127878948D01*
X88267529Y-127944248D01*
X88552986Y-127954046D01*
X88834870Y-127907967D01*
X89102347Y-127807780D01*
X89190509Y-127760655D01*
X89307609Y-127559741D01*
X88460000Y-126712132D01*
X87612391Y-127559741D01*
X83425000Y-127559741D01*
X83425000Y-126592986D01*
X87005954Y-126592986D01*
X87052033Y-126874870D01*
X87152220Y-127142347D01*
X87199345Y-127230509D01*
X87400259Y-127347609D01*
X88247868Y-126500000D01*
X88672132Y-126500000D01*
X89519741Y-127347609D01*
X89548065Y-127331101D01*
X89548065Y-127550000D01*
X89555788Y-127628414D01*
X89578660Y-127703814D01*
X89615803Y-127773303D01*
X89665789Y-127834211D01*
X89726697Y-127884197D01*
X89796186Y-127921340D01*
X89871586Y-127944212D01*
X89950000Y-127951935D01*
X92050000Y-127951935D01*
X92128414Y-127944212D01*
X92203814Y-127921340D01*
X92273303Y-127884197D01*
X92334211Y-127834211D01*
X92384197Y-127773303D01*
X92421340Y-127703814D01*
X92444212Y-127628414D01*
X92451935Y-127550000D01*
X92451935Y-125650000D01*
X99748065Y-125650000D01*
X99748065Y-127350000D01*
X99755788Y-127428414D01*
X99778660Y-127503814D01*
X99815803Y-127573303D01*
X99865789Y-127634211D01*
X99926697Y-127684197D01*
X99996186Y-127721340D01*
X100071586Y-127744212D01*
X100150000Y-127751935D01*
X101850000Y-127751935D01*
X101928414Y-127744212D01*
X102003814Y-127721340D01*
X102073303Y-127684197D01*
X102134211Y-127634211D01*
X102184197Y-127573303D01*
X102221340Y-127503814D01*
X102244212Y-127428414D01*
X102251935Y-127350000D01*
X102251935Y-126500000D01*
X102283952Y-126500000D01*
X102308087Y-126745043D01*
X102379563Y-126980669D01*
X102495634Y-127197823D01*
X102651840Y-127388160D01*
X102842177Y-127544366D01*
X103059331Y-127660437D01*
X103294957Y-127731913D01*
X103478595Y-127750000D01*
X103601405Y-127750000D01*
X103785043Y-127731913D01*
X104020669Y-127660437D01*
X104237823Y-127544366D01*
X104428160Y-127388160D01*
X104584366Y-127197823D01*
X104700437Y-126980669D01*
X104771913Y-126745043D01*
X104796048Y-126500000D01*
X104771913Y-126254957D01*
X104700437Y-126019331D01*
X104584366Y-125802177D01*
X104428160Y-125611840D01*
X104237823Y-125455634D01*
X104020669Y-125339563D01*
X103785043Y-125268087D01*
X103601405Y-125250000D01*
X103478595Y-125250000D01*
X103294957Y-125268087D01*
X103059331Y-125339563D01*
X102842177Y-125455634D01*
X102651840Y-125611840D01*
X102495634Y-125802177D01*
X102379563Y-126019331D01*
X102308087Y-126254957D01*
X102283952Y-126500000D01*
X102251935Y-126500000D01*
X102251935Y-125650000D01*
X102244212Y-125571586D01*
X102221340Y-125496186D01*
X102184197Y-125426697D01*
X102134211Y-125365789D01*
X102073303Y-125315803D01*
X102003814Y-125278660D01*
X101928414Y-125255788D01*
X101850000Y-125248065D01*
X100150000Y-125248065D01*
X100071586Y-125255788D01*
X99996186Y-125278660D01*
X99926697Y-125315803D01*
X99865789Y-125365789D01*
X99815803Y-125426697D01*
X99778660Y-125496186D01*
X99755788Y-125571586D01*
X99748065Y-125650000D01*
X92451935Y-125650000D01*
X92451935Y-125450000D01*
X92444212Y-125371586D01*
X92421340Y-125296186D01*
X92384197Y-125226697D01*
X92334211Y-125165789D01*
X92273303Y-125115803D01*
X92203814Y-125078660D01*
X92128414Y-125055788D01*
X92050000Y-125048065D01*
X89950000Y-125048065D01*
X89871586Y-125055788D01*
X89796186Y-125078660D01*
X89726697Y-125115803D01*
X89665789Y-125165789D01*
X89615803Y-125226697D01*
X89578660Y-125296186D01*
X89555788Y-125371586D01*
X89548065Y-125450000D01*
X89548065Y-125668899D01*
X89519741Y-125652391D01*
X88672132Y-126500000D01*
X88247868Y-126500000D01*
X87400259Y-125652391D01*
X87199345Y-125769491D01*
X87081052Y-126029469D01*
X87015752Y-126307529D01*
X87005954Y-126592986D01*
X83425000Y-126592986D01*
X83425000Y-125440259D01*
X87612391Y-125440259D01*
X88460000Y-126287868D01*
X89307609Y-125440259D01*
X89190509Y-125239345D01*
X88930531Y-125121052D01*
X88652471Y-125055752D01*
X88367014Y-125045954D01*
X88085130Y-125092033D01*
X87817653Y-125192220D01*
X87729491Y-125239345D01*
X87612391Y-125440259D01*
X83425000Y-125440259D01*
X83425000Y-89842284D01*
X89557770Y-89842284D01*
X89647647Y-90070251D01*
X89780271Y-90276303D01*
X89950545Y-90452522D01*
X90151926Y-90592136D01*
X90376675Y-90689780D01*
X90417717Y-90702223D01*
X90610000Y-90640175D01*
X90610000Y-89650000D01*
X90910000Y-89650000D01*
X90910000Y-90640175D01*
X91102283Y-90702223D01*
X91143325Y-90689780D01*
X91368074Y-90592136D01*
X91569455Y-90452522D01*
X91739729Y-90276303D01*
X91872353Y-90070251D01*
X91962230Y-89842284D01*
X91900974Y-89650000D01*
X90910000Y-89650000D01*
X90610000Y-89650000D01*
X89619026Y-89650000D01*
X89557770Y-89842284D01*
X83425000Y-89842284D01*
X83425000Y-89500000D01*
X92043952Y-89500000D01*
X92068087Y-89745043D01*
X92139563Y-89980669D01*
X92255634Y-90197823D01*
X92411840Y-90388160D01*
X92602177Y-90544366D01*
X92819331Y-90660437D01*
X93054957Y-90731913D01*
X93238595Y-90750000D01*
X93361405Y-90750000D01*
X93545043Y-90731913D01*
X93780669Y-90660437D01*
X93997823Y-90544366D01*
X94188160Y-90388160D01*
X94344366Y-90197823D01*
X94460437Y-89980669D01*
X94531913Y-89745043D01*
X94556048Y-89500000D01*
X94583952Y-89500000D01*
X94608087Y-89745043D01*
X94679563Y-89980669D01*
X94795634Y-90197823D01*
X94951840Y-90388160D01*
X95142177Y-90544366D01*
X95359331Y-90660437D01*
X95594957Y-90731913D01*
X95778595Y-90750000D01*
X95901405Y-90750000D01*
X96085043Y-90731913D01*
X96320669Y-90660437D01*
X96537823Y-90544366D01*
X96728160Y-90388160D01*
X96884366Y-90197823D01*
X97000437Y-89980669D01*
X97071913Y-89745043D01*
X97096048Y-89500000D01*
X97123952Y-89500000D01*
X97148087Y-89745043D01*
X97219563Y-89980669D01*
X97335634Y-90197823D01*
X97491840Y-90388160D01*
X97682177Y-90544366D01*
X97899331Y-90660437D01*
X98134957Y-90731913D01*
X98318595Y-90750000D01*
X98441405Y-90750000D01*
X98625043Y-90731913D01*
X98860669Y-90660437D01*
X99077823Y-90544366D01*
X99268160Y-90388160D01*
X99424366Y-90197823D01*
X99540437Y-89980669D01*
X99611913Y-89745043D01*
X99636048Y-89500000D01*
X99663952Y-89500000D01*
X99688087Y-89745043D01*
X99759563Y-89980669D01*
X99875634Y-90197823D01*
X100031840Y-90388160D01*
X100222177Y-90544366D01*
X100439331Y-90660437D01*
X100674957Y-90731913D01*
X100858595Y-90750000D01*
X100981405Y-90750000D01*
X101165043Y-90731913D01*
X101400669Y-90660437D01*
X101617823Y-90544366D01*
X101808160Y-90388160D01*
X101964366Y-90197823D01*
X102080437Y-89980669D01*
X102151913Y-89745043D01*
X102176048Y-89500000D01*
X102203952Y-89500000D01*
X102228087Y-89745043D01*
X102299563Y-89980669D01*
X102415634Y-90197823D01*
X102571840Y-90388160D01*
X102762177Y-90544366D01*
X102979331Y-90660437D01*
X103214957Y-90731913D01*
X103398595Y-90750000D01*
X103521405Y-90750000D01*
X103705043Y-90731913D01*
X103940669Y-90660437D01*
X104157823Y-90544366D01*
X104348160Y-90388160D01*
X104504366Y-90197823D01*
X104620437Y-89980669D01*
X104691913Y-89745043D01*
X104716048Y-89500000D01*
X104691913Y-89254957D01*
X104620437Y-89019331D01*
X104504366Y-88802177D01*
X104379478Y-88650000D01*
X104748065Y-88650000D01*
X104748065Y-90350000D01*
X104755788Y-90428414D01*
X104778660Y-90503814D01*
X104815803Y-90573303D01*
X104865789Y-90634211D01*
X104926697Y-90684197D01*
X104996186Y-90721340D01*
X105071586Y-90744212D01*
X105150000Y-90751935D01*
X106850000Y-90751935D01*
X106928414Y-90744212D01*
X107003814Y-90721340D01*
X107073303Y-90684197D01*
X107134211Y-90634211D01*
X107184197Y-90573303D01*
X107221340Y-90503814D01*
X107244212Y-90428414D01*
X107251935Y-90350000D01*
X107251935Y-88650000D01*
X107244212Y-88571586D01*
X107221340Y-88496186D01*
X107184197Y-88426697D01*
X107134211Y-88365789D01*
X107073303Y-88315803D01*
X107003814Y-88278660D01*
X106928414Y-88255788D01*
X106850000Y-88248065D01*
X105150000Y-88248065D01*
X105071586Y-88255788D01*
X104996186Y-88278660D01*
X104926697Y-88315803D01*
X104865789Y-88365789D01*
X104815803Y-88426697D01*
X104778660Y-88496186D01*
X104755788Y-88571586D01*
X104748065Y-88650000D01*
X104379478Y-88650000D01*
X104348160Y-88611840D01*
X104157823Y-88455634D01*
X103940669Y-88339563D01*
X103705043Y-88268087D01*
X103521405Y-88250000D01*
X103398595Y-88250000D01*
X103214957Y-88268087D01*
X102979331Y-88339563D01*
X102762177Y-88455634D01*
X102571840Y-88611840D01*
X102415634Y-88802177D01*
X102299563Y-89019331D01*
X102228087Y-89254957D01*
X102203952Y-89500000D01*
X102176048Y-89500000D01*
X102151913Y-89254957D01*
X102080437Y-89019331D01*
X101964366Y-88802177D01*
X101808160Y-88611840D01*
X101617823Y-88455634D01*
X101400669Y-88339563D01*
X101165043Y-88268087D01*
X100981405Y-88250000D01*
X100858595Y-88250000D01*
X100674957Y-88268087D01*
X100439331Y-88339563D01*
X100222177Y-88455634D01*
X100031840Y-88611840D01*
X99875634Y-88802177D01*
X99759563Y-89019331D01*
X99688087Y-89254957D01*
X99663952Y-89500000D01*
X99636048Y-89500000D01*
X99611913Y-89254957D01*
X99540437Y-89019331D01*
X99424366Y-88802177D01*
X99268160Y-88611840D01*
X99077823Y-88455634D01*
X98860669Y-88339563D01*
X98625043Y-88268087D01*
X98441405Y-88250000D01*
X98318595Y-88250000D01*
X98134957Y-88268087D01*
X97899331Y-88339563D01*
X97682177Y-88455634D01*
X97491840Y-88611840D01*
X97335634Y-88802177D01*
X97219563Y-89019331D01*
X97148087Y-89254957D01*
X97123952Y-89500000D01*
X97096048Y-89500000D01*
X97071913Y-89254957D01*
X97000437Y-89019331D01*
X96884366Y-88802177D01*
X96728160Y-88611840D01*
X96537823Y-88455634D01*
X96320669Y-88339563D01*
X96085043Y-88268087D01*
X95901405Y-88250000D01*
X95778595Y-88250000D01*
X95594957Y-88268087D01*
X95359331Y-88339563D01*
X95142177Y-88455634D01*
X94951840Y-88611840D01*
X94795634Y-88802177D01*
X94679563Y-89019331D01*
X94608087Y-89254957D01*
X94583952Y-89500000D01*
X94556048Y-89500000D01*
X94531913Y-89254957D01*
X94460437Y-89019331D01*
X94344366Y-88802177D01*
X94188160Y-88611840D01*
X93997823Y-88455634D01*
X93780669Y-88339563D01*
X93545043Y-88268087D01*
X93361405Y-88250000D01*
X93238595Y-88250000D01*
X93054957Y-88268087D01*
X92819331Y-88339563D01*
X92602177Y-88455634D01*
X92411840Y-88611840D01*
X92255634Y-88802177D01*
X92139563Y-89019331D01*
X92068087Y-89254957D01*
X92043952Y-89500000D01*
X83425000Y-89500000D01*
X83425000Y-89157716D01*
X89557770Y-89157716D01*
X89619026Y-89350000D01*
X90610000Y-89350000D01*
X90610000Y-88359825D01*
X90910000Y-88359825D01*
X90910000Y-89350000D01*
X91900974Y-89350000D01*
X91962230Y-89157716D01*
X91872353Y-88929749D01*
X91739729Y-88723697D01*
X91569455Y-88547478D01*
X91368074Y-88407864D01*
X91143325Y-88310220D01*
X91102283Y-88297777D01*
X90910000Y-88359825D01*
X90610000Y-88359825D01*
X90417717Y-88297777D01*
X90376675Y-88310220D01*
X90151926Y-88407864D01*
X89950545Y-88547478D01*
X89780271Y-88723697D01*
X89647647Y-88929749D01*
X89557770Y-89157716D01*
X83425000Y-89157716D01*
X83425000Y-86425000D01*
X114575000Y-86425000D01*
X114575001Y-129575000D01*
X114575001Y-129575000D01*
G37*
X114575001Y-129575000D02*
X83425000Y-129575000D01*
X83425000Y-127559741D01*
X87612391Y-127559741D01*
X87729491Y-127760655D01*
X87989469Y-127878948D01*
X88267529Y-127944248D01*
X88552986Y-127954046D01*
X88834870Y-127907967D01*
X89102347Y-127807780D01*
X89190509Y-127760655D01*
X89307609Y-127559741D01*
X88460000Y-126712132D01*
X87612391Y-127559741D01*
X83425000Y-127559741D01*
X83425000Y-126592986D01*
X87005954Y-126592986D01*
X87052033Y-126874870D01*
X87152220Y-127142347D01*
X87199345Y-127230509D01*
X87400259Y-127347609D01*
X88247868Y-126500000D01*
X88672132Y-126500000D01*
X89519741Y-127347609D01*
X89548065Y-127331101D01*
X89548065Y-127550000D01*
X89555788Y-127628414D01*
X89578660Y-127703814D01*
X89615803Y-127773303D01*
X89665789Y-127834211D01*
X89726697Y-127884197D01*
X89796186Y-127921340D01*
X89871586Y-127944212D01*
X89950000Y-127951935D01*
X92050000Y-127951935D01*
X92128414Y-127944212D01*
X92203814Y-127921340D01*
X92273303Y-127884197D01*
X92334211Y-127834211D01*
X92384197Y-127773303D01*
X92421340Y-127703814D01*
X92444212Y-127628414D01*
X92451935Y-127550000D01*
X92451935Y-125650000D01*
X99748065Y-125650000D01*
X99748065Y-127350000D01*
X99755788Y-127428414D01*
X99778660Y-127503814D01*
X99815803Y-127573303D01*
X99865789Y-127634211D01*
X99926697Y-127684197D01*
X99996186Y-127721340D01*
X100071586Y-127744212D01*
X100150000Y-127751935D01*
X101850000Y-127751935D01*
X101928414Y-127744212D01*
X102003814Y-127721340D01*
X102073303Y-127684197D01*
X102134211Y-127634211D01*
X102184197Y-127573303D01*
X102221340Y-127503814D01*
X102244212Y-127428414D01*
X102251935Y-127350000D01*
X102251935Y-126500000D01*
X102283952Y-126500000D01*
X102308087Y-126745043D01*
X102379563Y-126980669D01*
X102495634Y-127197823D01*
X102651840Y-127388160D01*
X102842177Y-127544366D01*
X103059331Y-127660437D01*
X103294957Y-127731913D01*
X103478595Y-127750000D01*
X103601405Y-127750000D01*
X103785043Y-127731913D01*
X104020669Y-127660437D01*
X104237823Y-127544366D01*
X104428160Y-127388160D01*
X104584366Y-127197823D01*
X104700437Y-126980669D01*
X104771913Y-126745043D01*
X104796048Y-126500000D01*
X104771913Y-126254957D01*
X104700437Y-126019331D01*
X104584366Y-125802177D01*
X104428160Y-125611840D01*
X104237823Y-125455634D01*
X104020669Y-125339563D01*
X103785043Y-125268087D01*
X103601405Y-125250000D01*
X103478595Y-125250000D01*
X103294957Y-125268087D01*
X103059331Y-125339563D01*
X102842177Y-125455634D01*
X102651840Y-125611840D01*
X102495634Y-125802177D01*
X102379563Y-126019331D01*
X102308087Y-126254957D01*
X102283952Y-126500000D01*
X102251935Y-126500000D01*
X102251935Y-125650000D01*
X102244212Y-125571586D01*
X102221340Y-125496186D01*
X102184197Y-125426697D01*
X102134211Y-125365789D01*
X102073303Y-125315803D01*
X102003814Y-125278660D01*
X101928414Y-125255788D01*
X101850000Y-125248065D01*
X100150000Y-125248065D01*
X100071586Y-125255788D01*
X99996186Y-125278660D01*
X99926697Y-125315803D01*
X99865789Y-125365789D01*
X99815803Y-125426697D01*
X99778660Y-125496186D01*
X99755788Y-125571586D01*
X99748065Y-125650000D01*
X92451935Y-125650000D01*
X92451935Y-125450000D01*
X92444212Y-125371586D01*
X92421340Y-125296186D01*
X92384197Y-125226697D01*
X92334211Y-125165789D01*
X92273303Y-125115803D01*
X92203814Y-125078660D01*
X92128414Y-125055788D01*
X92050000Y-125048065D01*
X89950000Y-125048065D01*
X89871586Y-125055788D01*
X89796186Y-125078660D01*
X89726697Y-125115803D01*
X89665789Y-125165789D01*
X89615803Y-125226697D01*
X89578660Y-125296186D01*
X89555788Y-125371586D01*
X89548065Y-125450000D01*
X89548065Y-125668899D01*
X89519741Y-125652391D01*
X88672132Y-126500000D01*
X88247868Y-126500000D01*
X87400259Y-125652391D01*
X87199345Y-125769491D01*
X87081052Y-126029469D01*
X87015752Y-126307529D01*
X87005954Y-126592986D01*
X83425000Y-126592986D01*
X83425000Y-125440259D01*
X87612391Y-125440259D01*
X88460000Y-126287868D01*
X89307609Y-125440259D01*
X89190509Y-125239345D01*
X88930531Y-125121052D01*
X88652471Y-125055752D01*
X88367014Y-125045954D01*
X88085130Y-125092033D01*
X87817653Y-125192220D01*
X87729491Y-125239345D01*
X87612391Y-125440259D01*
X83425000Y-125440259D01*
X83425000Y-89842284D01*
X89557770Y-89842284D01*
X89647647Y-90070251D01*
X89780271Y-90276303D01*
X89950545Y-90452522D01*
X90151926Y-90592136D01*
X90376675Y-90689780D01*
X90417717Y-90702223D01*
X90610000Y-90640175D01*
X90610000Y-89650000D01*
X90910000Y-89650000D01*
X90910000Y-90640175D01*
X91102283Y-90702223D01*
X91143325Y-90689780D01*
X91368074Y-90592136D01*
X91569455Y-90452522D01*
X91739729Y-90276303D01*
X91872353Y-90070251D01*
X91962230Y-89842284D01*
X91900974Y-89650000D01*
X90910000Y-89650000D01*
X90610000Y-89650000D01*
X89619026Y-89650000D01*
X89557770Y-89842284D01*
X83425000Y-89842284D01*
X83425000Y-89500000D01*
X92043952Y-89500000D01*
X92068087Y-89745043D01*
X92139563Y-89980669D01*
X92255634Y-90197823D01*
X92411840Y-90388160D01*
X92602177Y-90544366D01*
X92819331Y-90660437D01*
X93054957Y-90731913D01*
X93238595Y-90750000D01*
X93361405Y-90750000D01*
X93545043Y-90731913D01*
X93780669Y-90660437D01*
X93997823Y-90544366D01*
X94188160Y-90388160D01*
X94344366Y-90197823D01*
X94460437Y-89980669D01*
X94531913Y-89745043D01*
X94556048Y-89500000D01*
X94583952Y-89500000D01*
X94608087Y-89745043D01*
X94679563Y-89980669D01*
X94795634Y-90197823D01*
X94951840Y-90388160D01*
X95142177Y-90544366D01*
X95359331Y-90660437D01*
X95594957Y-90731913D01*
X95778595Y-90750000D01*
X95901405Y-90750000D01*
X96085043Y-90731913D01*
X96320669Y-90660437D01*
X96537823Y-90544366D01*
X96728160Y-90388160D01*
X96884366Y-90197823D01*
X97000437Y-89980669D01*
X97071913Y-89745043D01*
X97096048Y-89500000D01*
X97123952Y-89500000D01*
X97148087Y-89745043D01*
X97219563Y-89980669D01*
X97335634Y-90197823D01*
X97491840Y-90388160D01*
X97682177Y-90544366D01*
X97899331Y-90660437D01*
X98134957Y-90731913D01*
X98318595Y-90750000D01*
X98441405Y-90750000D01*
X98625043Y-90731913D01*
X98860669Y-90660437D01*
X99077823Y-90544366D01*
X99268160Y-90388160D01*
X99424366Y-90197823D01*
X99540437Y-89980669D01*
X99611913Y-89745043D01*
X99636048Y-89500000D01*
X99663952Y-89500000D01*
X99688087Y-89745043D01*
X99759563Y-89980669D01*
X99875634Y-90197823D01*
X100031840Y-90388160D01*
X100222177Y-90544366D01*
X100439331Y-90660437D01*
X100674957Y-90731913D01*
X100858595Y-90750000D01*
X100981405Y-90750000D01*
X101165043Y-90731913D01*
X101400669Y-90660437D01*
X101617823Y-90544366D01*
X101808160Y-90388160D01*
X101964366Y-90197823D01*
X102080437Y-89980669D01*
X102151913Y-89745043D01*
X102176048Y-89500000D01*
X102203952Y-89500000D01*
X102228087Y-89745043D01*
X102299563Y-89980669D01*
X102415634Y-90197823D01*
X102571840Y-90388160D01*
X102762177Y-90544366D01*
X102979331Y-90660437D01*
X103214957Y-90731913D01*
X103398595Y-90750000D01*
X103521405Y-90750000D01*
X103705043Y-90731913D01*
X103940669Y-90660437D01*
X104157823Y-90544366D01*
X104348160Y-90388160D01*
X104504366Y-90197823D01*
X104620437Y-89980669D01*
X104691913Y-89745043D01*
X104716048Y-89500000D01*
X104691913Y-89254957D01*
X104620437Y-89019331D01*
X104504366Y-88802177D01*
X104379478Y-88650000D01*
X104748065Y-88650000D01*
X104748065Y-90350000D01*
X104755788Y-90428414D01*
X104778660Y-90503814D01*
X104815803Y-90573303D01*
X104865789Y-90634211D01*
X104926697Y-90684197D01*
X104996186Y-90721340D01*
X105071586Y-90744212D01*
X105150000Y-90751935D01*
X106850000Y-90751935D01*
X106928414Y-90744212D01*
X107003814Y-90721340D01*
X107073303Y-90684197D01*
X107134211Y-90634211D01*
X107184197Y-90573303D01*
X107221340Y-90503814D01*
X107244212Y-90428414D01*
X107251935Y-90350000D01*
X107251935Y-88650000D01*
X107244212Y-88571586D01*
X107221340Y-88496186D01*
X107184197Y-88426697D01*
X107134211Y-88365789D01*
X107073303Y-88315803D01*
X107003814Y-88278660D01*
X106928414Y-88255788D01*
X106850000Y-88248065D01*
X105150000Y-88248065D01*
X105071586Y-88255788D01*
X104996186Y-88278660D01*
X104926697Y-88315803D01*
X104865789Y-88365789D01*
X104815803Y-88426697D01*
X104778660Y-88496186D01*
X104755788Y-88571586D01*
X104748065Y-88650000D01*
X104379478Y-88650000D01*
X104348160Y-88611840D01*
X104157823Y-88455634D01*
X103940669Y-88339563D01*
X103705043Y-88268087D01*
X103521405Y-88250000D01*
X103398595Y-88250000D01*
X103214957Y-88268087D01*
X102979331Y-88339563D01*
X102762177Y-88455634D01*
X102571840Y-88611840D01*
X102415634Y-88802177D01*
X102299563Y-89019331D01*
X102228087Y-89254957D01*
X102203952Y-89500000D01*
X102176048Y-89500000D01*
X102151913Y-89254957D01*
X102080437Y-89019331D01*
X101964366Y-88802177D01*
X101808160Y-88611840D01*
X101617823Y-88455634D01*
X101400669Y-88339563D01*
X101165043Y-88268087D01*
X100981405Y-88250000D01*
X100858595Y-88250000D01*
X100674957Y-88268087D01*
X100439331Y-88339563D01*
X100222177Y-88455634D01*
X100031840Y-88611840D01*
X99875634Y-88802177D01*
X99759563Y-89019331D01*
X99688087Y-89254957D01*
X99663952Y-89500000D01*
X99636048Y-89500000D01*
X99611913Y-89254957D01*
X99540437Y-89019331D01*
X99424366Y-88802177D01*
X99268160Y-88611840D01*
X99077823Y-88455634D01*
X98860669Y-88339563D01*
X98625043Y-88268087D01*
X98441405Y-88250000D01*
X98318595Y-88250000D01*
X98134957Y-88268087D01*
X97899331Y-88339563D01*
X97682177Y-88455634D01*
X97491840Y-88611840D01*
X97335634Y-88802177D01*
X97219563Y-89019331D01*
X97148087Y-89254957D01*
X97123952Y-89500000D01*
X97096048Y-89500000D01*
X97071913Y-89254957D01*
X97000437Y-89019331D01*
X96884366Y-88802177D01*
X96728160Y-88611840D01*
X96537823Y-88455634D01*
X96320669Y-88339563D01*
X96085043Y-88268087D01*
X95901405Y-88250000D01*
X95778595Y-88250000D01*
X95594957Y-88268087D01*
X95359331Y-88339563D01*
X95142177Y-88455634D01*
X94951840Y-88611840D01*
X94795634Y-88802177D01*
X94679563Y-89019331D01*
X94608087Y-89254957D01*
X94583952Y-89500000D01*
X94556048Y-89500000D01*
X94531913Y-89254957D01*
X94460437Y-89019331D01*
X94344366Y-88802177D01*
X94188160Y-88611840D01*
X93997823Y-88455634D01*
X93780669Y-88339563D01*
X93545043Y-88268087D01*
X93361405Y-88250000D01*
X93238595Y-88250000D01*
X93054957Y-88268087D01*
X92819331Y-88339563D01*
X92602177Y-88455634D01*
X92411840Y-88611840D01*
X92255634Y-88802177D01*
X92139563Y-89019331D01*
X92068087Y-89254957D01*
X92043952Y-89500000D01*
X83425000Y-89500000D01*
X83425000Y-89157716D01*
X89557770Y-89157716D01*
X89619026Y-89350000D01*
X90610000Y-89350000D01*
X90610000Y-88359825D01*
X90910000Y-88359825D01*
X90910000Y-89350000D01*
X91900974Y-89350000D01*
X91962230Y-89157716D01*
X91872353Y-88929749D01*
X91739729Y-88723697D01*
X91569455Y-88547478D01*
X91368074Y-88407864D01*
X91143325Y-88310220D01*
X91102283Y-88297777D01*
X90910000Y-88359825D01*
X90610000Y-88359825D01*
X90417717Y-88297777D01*
X90376675Y-88310220D01*
X90151926Y-88407864D01*
X89950545Y-88547478D01*
X89780271Y-88723697D01*
X89647647Y-88929749D01*
X89557770Y-89157716D01*
X83425000Y-89157716D01*
X83425000Y-86425000D01*
X114575000Y-86425000D01*
X114575001Y-129575000D01*
M02*
