M48
; DRILL file {KiCad 5.1.2} date 19.08.2019 21:30:04
; FORMAT={-:-/ absolute / metric / decimal}
; #@! TF.CreationDate,2019-08-19T21:30:04+02:00
; #@! TF.GenerationSoftware,Kicad,Pcbnew,5.1.2
; #@! TF.FileFunction,Plated,1,2,PTH
FMAT,2
METRIC
T1C0.400
T2C1.000
T3C1.100
%
G90
G05
T1
X84.75Y-87.5
X88.062Y-100.438
X90.5Y-118.5
X95.0Y-120.5
X95.062Y-100.438
X95.25Y-117.5
X98.0Y-128.0
X100.0Y-116.5
X100.312Y-120.438
X102.0Y-100.5
X108.0Y-88.5
X109.062Y-100.438
T2
X101.0Y-126.5
X103.54Y-126.5
X90.76Y-89.5
X93.3Y-89.5
X95.84Y-89.5
X98.38Y-89.5
X100.92Y-89.5
X103.46Y-89.5
X106.0Y-89.5
T3
X88.46Y-126.5
X91.0Y-126.5
T0
M30
