G04 #@! TF.GenerationSoftware,KiCad,Pcbnew,5.1.2*
G04 #@! TF.CreationDate,2019-08-19T21:30:06+02:00*
G04 #@! TF.ProjectId,Battery-Tester,42617474-6572-4792-9d54-65737465722e,rev?*
G04 #@! TF.SameCoordinates,Original*
G04 #@! TF.FileFunction,Soldermask,Bot*
G04 #@! TF.FilePolarity,Negative*
%FSLAX46Y46*%
G04 Gerber Fmt 4.6, Leading zero omitted, Abs format (unit mm)*
G04 Created by KiCad (PCBNEW 5.1.2) date 2019-08-19 21:30:06*
%MOMM*%
%LPD*%
G04 APERTURE LIST*
%ADD10C,0.100000*%
G04 APERTURE END LIST*
D10*
G36*
X88781150Y-125441311D02*
G01*
X88981521Y-125524307D01*
X89161847Y-125644797D01*
X89315203Y-125798153D01*
X89435693Y-125978479D01*
X89508201Y-126153530D01*
X89518689Y-126178850D01*
X89561000Y-126391561D01*
X89561000Y-126608439D01*
X89518689Y-126821150D01*
X89435693Y-127021521D01*
X89315203Y-127201847D01*
X89161847Y-127355203D01*
X88981521Y-127475693D01*
X88781150Y-127558689D01*
X88568439Y-127601000D01*
X88351561Y-127601000D01*
X88138850Y-127558689D01*
X87938479Y-127475693D01*
X87758153Y-127355203D01*
X87604797Y-127201847D01*
X87484307Y-127021521D01*
X87401311Y-126821150D01*
X87359000Y-126608439D01*
X87359000Y-126391561D01*
X87401311Y-126178850D01*
X87411799Y-126153530D01*
X87484307Y-125978479D01*
X87604797Y-125798153D01*
X87758153Y-125644797D01*
X87938479Y-125524307D01*
X88138850Y-125441311D01*
X88351561Y-125399000D01*
X88568439Y-125399000D01*
X88781150Y-125441311D01*
X88781150Y-125441311D01*
G37*
G36*
X92101000Y-127601000D02*
G01*
X89899000Y-127601000D01*
X89899000Y-125399000D01*
X92101000Y-125399000D01*
X92101000Y-127601000D01*
X92101000Y-127601000D01*
G37*
G36*
X101901000Y-127401000D02*
G01*
X100099000Y-127401000D01*
X100099000Y-125599000D01*
X101901000Y-125599000D01*
X101901000Y-127401000D01*
X101901000Y-127401000D01*
G37*
G36*
X103716627Y-125612037D02*
G01*
X103886466Y-125663557D01*
X103886469Y-125663559D01*
X103886470Y-125663559D01*
X104042988Y-125747220D01*
X104042989Y-125747221D01*
X104042991Y-125747222D01*
X104180185Y-125859815D01*
X104292778Y-125997009D01*
X104376443Y-126153534D01*
X104427963Y-126323373D01*
X104445359Y-126500000D01*
X104427963Y-126676627D01*
X104376443Y-126846466D01*
X104292778Y-127002991D01*
X104180185Y-127140185D01*
X104042991Y-127252778D01*
X104042989Y-127252779D01*
X104042988Y-127252780D01*
X103886470Y-127336441D01*
X103886466Y-127336443D01*
X103716627Y-127387963D01*
X103584258Y-127401000D01*
X103495742Y-127401000D01*
X103363373Y-127387963D01*
X103193534Y-127336443D01*
X103193530Y-127336441D01*
X103037012Y-127252780D01*
X103037011Y-127252779D01*
X103037009Y-127252778D01*
X102899815Y-127140185D01*
X102787222Y-127002991D01*
X102703557Y-126846466D01*
X102652037Y-126676627D01*
X102634641Y-126500000D01*
X102652037Y-126323373D01*
X102703557Y-126153534D01*
X102787222Y-125997009D01*
X102899815Y-125859815D01*
X103037009Y-125747222D01*
X103037011Y-125747221D01*
X103037012Y-125747220D01*
X103193530Y-125663559D01*
X103193531Y-125663559D01*
X103193534Y-125663557D01*
X103363373Y-125612037D01*
X103495742Y-125599000D01*
X103584258Y-125599000D01*
X103716627Y-125612037D01*
X103716627Y-125612037D01*
G37*
G36*
X96016627Y-88612037D02*
G01*
X96186466Y-88663557D01*
X96186469Y-88663559D01*
X96186470Y-88663559D01*
X96342988Y-88747220D01*
X96342989Y-88747221D01*
X96342991Y-88747222D01*
X96480185Y-88859815D01*
X96592778Y-88997009D01*
X96676443Y-89153534D01*
X96727963Y-89323373D01*
X96745359Y-89500000D01*
X96727963Y-89676627D01*
X96676443Y-89846466D01*
X96592778Y-90002991D01*
X96480185Y-90140185D01*
X96342991Y-90252778D01*
X96342989Y-90252779D01*
X96342988Y-90252780D01*
X96186470Y-90336441D01*
X96186466Y-90336443D01*
X96016627Y-90387963D01*
X95884258Y-90401000D01*
X95795742Y-90401000D01*
X95663373Y-90387963D01*
X95493534Y-90336443D01*
X95493530Y-90336441D01*
X95337012Y-90252780D01*
X95337011Y-90252779D01*
X95337009Y-90252778D01*
X95199815Y-90140185D01*
X95087222Y-90002991D01*
X95003557Y-89846466D01*
X94952037Y-89676627D01*
X94934641Y-89500000D01*
X94952037Y-89323373D01*
X95003557Y-89153534D01*
X95087222Y-88997009D01*
X95199815Y-88859815D01*
X95337009Y-88747222D01*
X95337011Y-88747221D01*
X95337012Y-88747220D01*
X95493530Y-88663559D01*
X95493531Y-88663559D01*
X95493534Y-88663557D01*
X95663373Y-88612037D01*
X95795742Y-88599000D01*
X95884258Y-88599000D01*
X96016627Y-88612037D01*
X96016627Y-88612037D01*
G37*
G36*
X93476627Y-88612037D02*
G01*
X93646466Y-88663557D01*
X93646469Y-88663559D01*
X93646470Y-88663559D01*
X93802988Y-88747220D01*
X93802989Y-88747221D01*
X93802991Y-88747222D01*
X93940185Y-88859815D01*
X94052778Y-88997009D01*
X94136443Y-89153534D01*
X94187963Y-89323373D01*
X94205359Y-89500000D01*
X94187963Y-89676627D01*
X94136443Y-89846466D01*
X94052778Y-90002991D01*
X93940185Y-90140185D01*
X93802991Y-90252778D01*
X93802989Y-90252779D01*
X93802988Y-90252780D01*
X93646470Y-90336441D01*
X93646466Y-90336443D01*
X93476627Y-90387963D01*
X93344258Y-90401000D01*
X93255742Y-90401000D01*
X93123373Y-90387963D01*
X92953534Y-90336443D01*
X92953530Y-90336441D01*
X92797012Y-90252780D01*
X92797011Y-90252779D01*
X92797009Y-90252778D01*
X92659815Y-90140185D01*
X92547222Y-90002991D01*
X92463557Y-89846466D01*
X92412037Y-89676627D01*
X92394641Y-89500000D01*
X92412037Y-89323373D01*
X92463557Y-89153534D01*
X92547222Y-88997009D01*
X92659815Y-88859815D01*
X92797009Y-88747222D01*
X92797011Y-88747221D01*
X92797012Y-88747220D01*
X92953530Y-88663559D01*
X92953531Y-88663559D01*
X92953534Y-88663557D01*
X93123373Y-88612037D01*
X93255742Y-88599000D01*
X93344258Y-88599000D01*
X93476627Y-88612037D01*
X93476627Y-88612037D01*
G37*
G36*
X90936627Y-88612037D02*
G01*
X91106466Y-88663557D01*
X91106469Y-88663559D01*
X91106470Y-88663559D01*
X91262988Y-88747220D01*
X91262989Y-88747221D01*
X91262991Y-88747222D01*
X91400185Y-88859815D01*
X91512778Y-88997009D01*
X91596443Y-89153534D01*
X91647963Y-89323373D01*
X91665359Y-89500000D01*
X91647963Y-89676627D01*
X91596443Y-89846466D01*
X91512778Y-90002991D01*
X91400185Y-90140185D01*
X91262991Y-90252778D01*
X91262989Y-90252779D01*
X91262988Y-90252780D01*
X91106470Y-90336441D01*
X91106466Y-90336443D01*
X90936627Y-90387963D01*
X90804258Y-90401000D01*
X90715742Y-90401000D01*
X90583373Y-90387963D01*
X90413534Y-90336443D01*
X90413530Y-90336441D01*
X90257012Y-90252780D01*
X90257011Y-90252779D01*
X90257009Y-90252778D01*
X90119815Y-90140185D01*
X90007222Y-90002991D01*
X89923557Y-89846466D01*
X89872037Y-89676627D01*
X89854641Y-89500000D01*
X89872037Y-89323373D01*
X89923557Y-89153534D01*
X90007222Y-88997009D01*
X90119815Y-88859815D01*
X90257009Y-88747222D01*
X90257011Y-88747221D01*
X90257012Y-88747220D01*
X90413530Y-88663559D01*
X90413531Y-88663559D01*
X90413534Y-88663557D01*
X90583373Y-88612037D01*
X90715742Y-88599000D01*
X90804258Y-88599000D01*
X90936627Y-88612037D01*
X90936627Y-88612037D01*
G37*
G36*
X98556627Y-88612037D02*
G01*
X98726466Y-88663557D01*
X98726469Y-88663559D01*
X98726470Y-88663559D01*
X98882988Y-88747220D01*
X98882989Y-88747221D01*
X98882991Y-88747222D01*
X99020185Y-88859815D01*
X99132778Y-88997009D01*
X99216443Y-89153534D01*
X99267963Y-89323373D01*
X99285359Y-89500000D01*
X99267963Y-89676627D01*
X99216443Y-89846466D01*
X99132778Y-90002991D01*
X99020185Y-90140185D01*
X98882991Y-90252778D01*
X98882989Y-90252779D01*
X98882988Y-90252780D01*
X98726470Y-90336441D01*
X98726466Y-90336443D01*
X98556627Y-90387963D01*
X98424258Y-90401000D01*
X98335742Y-90401000D01*
X98203373Y-90387963D01*
X98033534Y-90336443D01*
X98033530Y-90336441D01*
X97877012Y-90252780D01*
X97877011Y-90252779D01*
X97877009Y-90252778D01*
X97739815Y-90140185D01*
X97627222Y-90002991D01*
X97543557Y-89846466D01*
X97492037Y-89676627D01*
X97474641Y-89500000D01*
X97492037Y-89323373D01*
X97543557Y-89153534D01*
X97627222Y-88997009D01*
X97739815Y-88859815D01*
X97877009Y-88747222D01*
X97877011Y-88747221D01*
X97877012Y-88747220D01*
X98033530Y-88663559D01*
X98033531Y-88663559D01*
X98033534Y-88663557D01*
X98203373Y-88612037D01*
X98335742Y-88599000D01*
X98424258Y-88599000D01*
X98556627Y-88612037D01*
X98556627Y-88612037D01*
G37*
G36*
X101096627Y-88612037D02*
G01*
X101266466Y-88663557D01*
X101266469Y-88663559D01*
X101266470Y-88663559D01*
X101422988Y-88747220D01*
X101422989Y-88747221D01*
X101422991Y-88747222D01*
X101560185Y-88859815D01*
X101672778Y-88997009D01*
X101756443Y-89153534D01*
X101807963Y-89323373D01*
X101825359Y-89500000D01*
X101807963Y-89676627D01*
X101756443Y-89846466D01*
X101672778Y-90002991D01*
X101560185Y-90140185D01*
X101422991Y-90252778D01*
X101422989Y-90252779D01*
X101422988Y-90252780D01*
X101266470Y-90336441D01*
X101266466Y-90336443D01*
X101096627Y-90387963D01*
X100964258Y-90401000D01*
X100875742Y-90401000D01*
X100743373Y-90387963D01*
X100573534Y-90336443D01*
X100573530Y-90336441D01*
X100417012Y-90252780D01*
X100417011Y-90252779D01*
X100417009Y-90252778D01*
X100279815Y-90140185D01*
X100167222Y-90002991D01*
X100083557Y-89846466D01*
X100032037Y-89676627D01*
X100014641Y-89500000D01*
X100032037Y-89323373D01*
X100083557Y-89153534D01*
X100167222Y-88997009D01*
X100279815Y-88859815D01*
X100417009Y-88747222D01*
X100417011Y-88747221D01*
X100417012Y-88747220D01*
X100573530Y-88663559D01*
X100573531Y-88663559D01*
X100573534Y-88663557D01*
X100743373Y-88612037D01*
X100875742Y-88599000D01*
X100964258Y-88599000D01*
X101096627Y-88612037D01*
X101096627Y-88612037D01*
G37*
G36*
X103636627Y-88612037D02*
G01*
X103806466Y-88663557D01*
X103806469Y-88663559D01*
X103806470Y-88663559D01*
X103962988Y-88747220D01*
X103962989Y-88747221D01*
X103962991Y-88747222D01*
X104100185Y-88859815D01*
X104212778Y-88997009D01*
X104296443Y-89153534D01*
X104347963Y-89323373D01*
X104365359Y-89500000D01*
X104347963Y-89676627D01*
X104296443Y-89846466D01*
X104212778Y-90002991D01*
X104100185Y-90140185D01*
X103962991Y-90252778D01*
X103962989Y-90252779D01*
X103962988Y-90252780D01*
X103806470Y-90336441D01*
X103806466Y-90336443D01*
X103636627Y-90387963D01*
X103504258Y-90401000D01*
X103415742Y-90401000D01*
X103283373Y-90387963D01*
X103113534Y-90336443D01*
X103113530Y-90336441D01*
X102957012Y-90252780D01*
X102957011Y-90252779D01*
X102957009Y-90252778D01*
X102819815Y-90140185D01*
X102707222Y-90002991D01*
X102623557Y-89846466D01*
X102572037Y-89676627D01*
X102554641Y-89500000D01*
X102572037Y-89323373D01*
X102623557Y-89153534D01*
X102707222Y-88997009D01*
X102819815Y-88859815D01*
X102957009Y-88747222D01*
X102957011Y-88747221D01*
X102957012Y-88747220D01*
X103113530Y-88663559D01*
X103113531Y-88663559D01*
X103113534Y-88663557D01*
X103283373Y-88612037D01*
X103415742Y-88599000D01*
X103504258Y-88599000D01*
X103636627Y-88612037D01*
X103636627Y-88612037D01*
G37*
G36*
X106901000Y-90401000D02*
G01*
X105099000Y-90401000D01*
X105099000Y-88599000D01*
X106901000Y-88599000D01*
X106901000Y-90401000D01*
X106901000Y-90401000D01*
G37*
M02*
