G04 #@! TF.GenerationSoftware,KiCad,Pcbnew,5.1.2*
G04 #@! TF.CreationDate,2019-08-19T21:30:06+02:00*
G04 #@! TF.ProjectId,Battery-Tester,42617474-6572-4792-9d54-65737465722e,rev?*
G04 #@! TF.SameCoordinates,Original*
G04 #@! TF.FileFunction,Copper,L1,Top*
G04 #@! TF.FilePolarity,Positive*
%FSLAX46Y46*%
G04 Gerber Fmt 4.6, Leading zero omitted, Abs format (unit mm)*
G04 Created by KiCad (PCBNEW 5.1.2) date 2019-08-19 21:30:06*
%MOMM*%
%LPD*%
G04 APERTURE LIST*
%ADD10R,0.900000X0.800000*%
%ADD11C,0.100000*%
%ADD12C,1.250000*%
%ADD13R,1.060000X0.650000*%
%ADD14C,0.975000*%
%ADD15R,1.300000X1.600000*%
%ADD16R,2.000000X1.600000*%
%ADD17R,0.800000X0.900000*%
%ADD18O,1.700000X1.700000*%
%ADD19R,1.700000X1.700000*%
%ADD20C,2.100000*%
%ADD21R,2.100000X2.100000*%
%ADD22C,1.925000*%
%ADD23C,1.300000*%
%ADD24C,0.800000*%
%ADD25C,0.250000*%
%ADD26C,0.500000*%
%ADD27C,1.000000*%
G04 APERTURE END LIST*
D10*
X111000000Y-89500000D03*
X109000000Y-90450000D03*
X109000000Y-88550000D03*
X95000000Y-127000000D03*
X97000000Y-126050000D03*
X97000000Y-127950000D03*
D11*
G36*
X110699504Y-125626204D02*
G01*
X110723773Y-125629804D01*
X110747571Y-125635765D01*
X110770671Y-125644030D01*
X110792849Y-125654520D01*
X110813893Y-125667133D01*
X110833598Y-125681747D01*
X110851777Y-125698223D01*
X110868253Y-125716402D01*
X110882867Y-125736107D01*
X110895480Y-125757151D01*
X110905970Y-125779329D01*
X110914235Y-125802429D01*
X110920196Y-125826227D01*
X110923796Y-125850496D01*
X110925000Y-125875000D01*
X110925000Y-127125000D01*
X110923796Y-127149504D01*
X110920196Y-127173773D01*
X110914235Y-127197571D01*
X110905970Y-127220671D01*
X110895480Y-127242849D01*
X110882867Y-127263893D01*
X110868253Y-127283598D01*
X110851777Y-127301777D01*
X110833598Y-127318253D01*
X110813893Y-127332867D01*
X110792849Y-127345480D01*
X110770671Y-127355970D01*
X110747571Y-127364235D01*
X110723773Y-127370196D01*
X110699504Y-127373796D01*
X110675000Y-127375000D01*
X109925000Y-127375000D01*
X109900496Y-127373796D01*
X109876227Y-127370196D01*
X109852429Y-127364235D01*
X109829329Y-127355970D01*
X109807151Y-127345480D01*
X109786107Y-127332867D01*
X109766402Y-127318253D01*
X109748223Y-127301777D01*
X109731747Y-127283598D01*
X109717133Y-127263893D01*
X109704520Y-127242849D01*
X109694030Y-127220671D01*
X109685765Y-127197571D01*
X109679804Y-127173773D01*
X109676204Y-127149504D01*
X109675000Y-127125000D01*
X109675000Y-125875000D01*
X109676204Y-125850496D01*
X109679804Y-125826227D01*
X109685765Y-125802429D01*
X109694030Y-125779329D01*
X109704520Y-125757151D01*
X109717133Y-125736107D01*
X109731747Y-125716402D01*
X109748223Y-125698223D01*
X109766402Y-125681747D01*
X109786107Y-125667133D01*
X109807151Y-125654520D01*
X109829329Y-125644030D01*
X109852429Y-125635765D01*
X109876227Y-125629804D01*
X109900496Y-125626204D01*
X109925000Y-125625000D01*
X110675000Y-125625000D01*
X110699504Y-125626204D01*
X110699504Y-125626204D01*
G37*
D12*
X110300000Y-126500000D03*
D11*
G36*
X107899504Y-125626204D02*
G01*
X107923773Y-125629804D01*
X107947571Y-125635765D01*
X107970671Y-125644030D01*
X107992849Y-125654520D01*
X108013893Y-125667133D01*
X108033598Y-125681747D01*
X108051777Y-125698223D01*
X108068253Y-125716402D01*
X108082867Y-125736107D01*
X108095480Y-125757151D01*
X108105970Y-125779329D01*
X108114235Y-125802429D01*
X108120196Y-125826227D01*
X108123796Y-125850496D01*
X108125000Y-125875000D01*
X108125000Y-127125000D01*
X108123796Y-127149504D01*
X108120196Y-127173773D01*
X108114235Y-127197571D01*
X108105970Y-127220671D01*
X108095480Y-127242849D01*
X108082867Y-127263893D01*
X108068253Y-127283598D01*
X108051777Y-127301777D01*
X108033598Y-127318253D01*
X108013893Y-127332867D01*
X107992849Y-127345480D01*
X107970671Y-127355970D01*
X107947571Y-127364235D01*
X107923773Y-127370196D01*
X107899504Y-127373796D01*
X107875000Y-127375000D01*
X107125000Y-127375000D01*
X107100496Y-127373796D01*
X107076227Y-127370196D01*
X107052429Y-127364235D01*
X107029329Y-127355970D01*
X107007151Y-127345480D01*
X106986107Y-127332867D01*
X106966402Y-127318253D01*
X106948223Y-127301777D01*
X106931747Y-127283598D01*
X106917133Y-127263893D01*
X106904520Y-127242849D01*
X106894030Y-127220671D01*
X106885765Y-127197571D01*
X106879804Y-127173773D01*
X106876204Y-127149504D01*
X106875000Y-127125000D01*
X106875000Y-125875000D01*
X106876204Y-125850496D01*
X106879804Y-125826227D01*
X106885765Y-125802429D01*
X106894030Y-125779329D01*
X106904520Y-125757151D01*
X106917133Y-125736107D01*
X106931747Y-125716402D01*
X106948223Y-125698223D01*
X106966402Y-125681747D01*
X106986107Y-125667133D01*
X107007151Y-125654520D01*
X107029329Y-125644030D01*
X107052429Y-125635765D01*
X107076227Y-125629804D01*
X107100496Y-125626204D01*
X107125000Y-125625000D01*
X107875000Y-125625000D01*
X107899504Y-125626204D01*
X107899504Y-125626204D01*
G37*
D12*
X107500000Y-126500000D03*
D13*
X91900000Y-118450000D03*
X91900000Y-116550000D03*
X94100000Y-116550000D03*
X94100000Y-117500000D03*
X94100000Y-118450000D03*
D11*
G36*
X85230142Y-88076174D02*
G01*
X85253803Y-88079684D01*
X85277007Y-88085496D01*
X85299529Y-88093554D01*
X85321153Y-88103782D01*
X85341670Y-88116079D01*
X85360883Y-88130329D01*
X85378607Y-88146393D01*
X85394671Y-88164117D01*
X85408921Y-88183330D01*
X85421218Y-88203847D01*
X85431446Y-88225471D01*
X85439504Y-88247993D01*
X85445316Y-88271197D01*
X85448826Y-88294858D01*
X85450000Y-88318750D01*
X85450000Y-88806250D01*
X85448826Y-88830142D01*
X85445316Y-88853803D01*
X85439504Y-88877007D01*
X85431446Y-88899529D01*
X85421218Y-88921153D01*
X85408921Y-88941670D01*
X85394671Y-88960883D01*
X85378607Y-88978607D01*
X85360883Y-88994671D01*
X85341670Y-89008921D01*
X85321153Y-89021218D01*
X85299529Y-89031446D01*
X85277007Y-89039504D01*
X85253803Y-89045316D01*
X85230142Y-89048826D01*
X85206250Y-89050000D01*
X84293750Y-89050000D01*
X84269858Y-89048826D01*
X84246197Y-89045316D01*
X84222993Y-89039504D01*
X84200471Y-89031446D01*
X84178847Y-89021218D01*
X84158330Y-89008921D01*
X84139117Y-88994671D01*
X84121393Y-88978607D01*
X84105329Y-88960883D01*
X84091079Y-88941670D01*
X84078782Y-88921153D01*
X84068554Y-88899529D01*
X84060496Y-88877007D01*
X84054684Y-88853803D01*
X84051174Y-88830142D01*
X84050000Y-88806250D01*
X84050000Y-88318750D01*
X84051174Y-88294858D01*
X84054684Y-88271197D01*
X84060496Y-88247993D01*
X84068554Y-88225471D01*
X84078782Y-88203847D01*
X84091079Y-88183330D01*
X84105329Y-88164117D01*
X84121393Y-88146393D01*
X84139117Y-88130329D01*
X84158330Y-88116079D01*
X84178847Y-88103782D01*
X84200471Y-88093554D01*
X84222993Y-88085496D01*
X84246197Y-88079684D01*
X84269858Y-88076174D01*
X84293750Y-88075000D01*
X85206250Y-88075000D01*
X85230142Y-88076174D01*
X85230142Y-88076174D01*
G37*
D14*
X84750000Y-88562500D03*
D11*
G36*
X85230142Y-89951174D02*
G01*
X85253803Y-89954684D01*
X85277007Y-89960496D01*
X85299529Y-89968554D01*
X85321153Y-89978782D01*
X85341670Y-89991079D01*
X85360883Y-90005329D01*
X85378607Y-90021393D01*
X85394671Y-90039117D01*
X85408921Y-90058330D01*
X85421218Y-90078847D01*
X85431446Y-90100471D01*
X85439504Y-90122993D01*
X85445316Y-90146197D01*
X85448826Y-90169858D01*
X85450000Y-90193750D01*
X85450000Y-90681250D01*
X85448826Y-90705142D01*
X85445316Y-90728803D01*
X85439504Y-90752007D01*
X85431446Y-90774529D01*
X85421218Y-90796153D01*
X85408921Y-90816670D01*
X85394671Y-90835883D01*
X85378607Y-90853607D01*
X85360883Y-90869671D01*
X85341670Y-90883921D01*
X85321153Y-90896218D01*
X85299529Y-90906446D01*
X85277007Y-90914504D01*
X85253803Y-90920316D01*
X85230142Y-90923826D01*
X85206250Y-90925000D01*
X84293750Y-90925000D01*
X84269858Y-90923826D01*
X84246197Y-90920316D01*
X84222993Y-90914504D01*
X84200471Y-90906446D01*
X84178847Y-90896218D01*
X84158330Y-90883921D01*
X84139117Y-90869671D01*
X84121393Y-90853607D01*
X84105329Y-90835883D01*
X84091079Y-90816670D01*
X84078782Y-90796153D01*
X84068554Y-90774529D01*
X84060496Y-90752007D01*
X84054684Y-90728803D01*
X84051174Y-90705142D01*
X84050000Y-90681250D01*
X84050000Y-90193750D01*
X84051174Y-90169858D01*
X84054684Y-90146197D01*
X84060496Y-90122993D01*
X84068554Y-90100471D01*
X84078782Y-90078847D01*
X84091079Y-90058330D01*
X84105329Y-90039117D01*
X84121393Y-90021393D01*
X84139117Y-90005329D01*
X84158330Y-89991079D01*
X84178847Y-89978782D01*
X84200471Y-89968554D01*
X84222993Y-89960496D01*
X84246197Y-89954684D01*
X84269858Y-89951174D01*
X84293750Y-89950000D01*
X85206250Y-89950000D01*
X85230142Y-89951174D01*
X85230142Y-89951174D01*
G37*
D14*
X84750000Y-90437500D03*
D11*
G36*
X109330142Y-96301174D02*
G01*
X109353803Y-96304684D01*
X109377007Y-96310496D01*
X109399529Y-96318554D01*
X109421153Y-96328782D01*
X109441670Y-96341079D01*
X109460883Y-96355329D01*
X109478607Y-96371393D01*
X109494671Y-96389117D01*
X109508921Y-96408330D01*
X109521218Y-96428847D01*
X109531446Y-96450471D01*
X109539504Y-96472993D01*
X109545316Y-96496197D01*
X109548826Y-96519858D01*
X109550000Y-96543750D01*
X109550000Y-97456250D01*
X109548826Y-97480142D01*
X109545316Y-97503803D01*
X109539504Y-97527007D01*
X109531446Y-97549529D01*
X109521218Y-97571153D01*
X109508921Y-97591670D01*
X109494671Y-97610883D01*
X109478607Y-97628607D01*
X109460883Y-97644671D01*
X109441670Y-97658921D01*
X109421153Y-97671218D01*
X109399529Y-97681446D01*
X109377007Y-97689504D01*
X109353803Y-97695316D01*
X109330142Y-97698826D01*
X109306250Y-97700000D01*
X108818750Y-97700000D01*
X108794858Y-97698826D01*
X108771197Y-97695316D01*
X108747993Y-97689504D01*
X108725471Y-97681446D01*
X108703847Y-97671218D01*
X108683330Y-97658921D01*
X108664117Y-97644671D01*
X108646393Y-97628607D01*
X108630329Y-97610883D01*
X108616079Y-97591670D01*
X108603782Y-97571153D01*
X108593554Y-97549529D01*
X108585496Y-97527007D01*
X108579684Y-97503803D01*
X108576174Y-97480142D01*
X108575000Y-97456250D01*
X108575000Y-96543750D01*
X108576174Y-96519858D01*
X108579684Y-96496197D01*
X108585496Y-96472993D01*
X108593554Y-96450471D01*
X108603782Y-96428847D01*
X108616079Y-96408330D01*
X108630329Y-96389117D01*
X108646393Y-96371393D01*
X108664117Y-96355329D01*
X108683330Y-96341079D01*
X108703847Y-96328782D01*
X108725471Y-96318554D01*
X108747993Y-96310496D01*
X108771197Y-96304684D01*
X108794858Y-96301174D01*
X108818750Y-96300000D01*
X109306250Y-96300000D01*
X109330142Y-96301174D01*
X109330142Y-96301174D01*
G37*
D14*
X109062500Y-97000000D03*
D11*
G36*
X111205142Y-96301174D02*
G01*
X111228803Y-96304684D01*
X111252007Y-96310496D01*
X111274529Y-96318554D01*
X111296153Y-96328782D01*
X111316670Y-96341079D01*
X111335883Y-96355329D01*
X111353607Y-96371393D01*
X111369671Y-96389117D01*
X111383921Y-96408330D01*
X111396218Y-96428847D01*
X111406446Y-96450471D01*
X111414504Y-96472993D01*
X111420316Y-96496197D01*
X111423826Y-96519858D01*
X111425000Y-96543750D01*
X111425000Y-97456250D01*
X111423826Y-97480142D01*
X111420316Y-97503803D01*
X111414504Y-97527007D01*
X111406446Y-97549529D01*
X111396218Y-97571153D01*
X111383921Y-97591670D01*
X111369671Y-97610883D01*
X111353607Y-97628607D01*
X111335883Y-97644671D01*
X111316670Y-97658921D01*
X111296153Y-97671218D01*
X111274529Y-97681446D01*
X111252007Y-97689504D01*
X111228803Y-97695316D01*
X111205142Y-97698826D01*
X111181250Y-97700000D01*
X110693750Y-97700000D01*
X110669858Y-97698826D01*
X110646197Y-97695316D01*
X110622993Y-97689504D01*
X110600471Y-97681446D01*
X110578847Y-97671218D01*
X110558330Y-97658921D01*
X110539117Y-97644671D01*
X110521393Y-97628607D01*
X110505329Y-97610883D01*
X110491079Y-97591670D01*
X110478782Y-97571153D01*
X110468554Y-97549529D01*
X110460496Y-97527007D01*
X110454684Y-97503803D01*
X110451174Y-97480142D01*
X110450000Y-97456250D01*
X110450000Y-96543750D01*
X110451174Y-96519858D01*
X110454684Y-96496197D01*
X110460496Y-96472993D01*
X110468554Y-96450471D01*
X110478782Y-96428847D01*
X110491079Y-96408330D01*
X110505329Y-96389117D01*
X110521393Y-96371393D01*
X110539117Y-96355329D01*
X110558330Y-96341079D01*
X110578847Y-96328782D01*
X110600471Y-96318554D01*
X110622993Y-96310496D01*
X110646197Y-96304684D01*
X110669858Y-96301174D01*
X110693750Y-96300000D01*
X111181250Y-96300000D01*
X111205142Y-96301174D01*
X111205142Y-96301174D01*
G37*
D14*
X110937500Y-97000000D03*
D11*
G36*
X109330142Y-98301174D02*
G01*
X109353803Y-98304684D01*
X109377007Y-98310496D01*
X109399529Y-98318554D01*
X109421153Y-98328782D01*
X109441670Y-98341079D01*
X109460883Y-98355329D01*
X109478607Y-98371393D01*
X109494671Y-98389117D01*
X109508921Y-98408330D01*
X109521218Y-98428847D01*
X109531446Y-98450471D01*
X109539504Y-98472993D01*
X109545316Y-98496197D01*
X109548826Y-98519858D01*
X109550000Y-98543750D01*
X109550000Y-99456250D01*
X109548826Y-99480142D01*
X109545316Y-99503803D01*
X109539504Y-99527007D01*
X109531446Y-99549529D01*
X109521218Y-99571153D01*
X109508921Y-99591670D01*
X109494671Y-99610883D01*
X109478607Y-99628607D01*
X109460883Y-99644671D01*
X109441670Y-99658921D01*
X109421153Y-99671218D01*
X109399529Y-99681446D01*
X109377007Y-99689504D01*
X109353803Y-99695316D01*
X109330142Y-99698826D01*
X109306250Y-99700000D01*
X108818750Y-99700000D01*
X108794858Y-99698826D01*
X108771197Y-99695316D01*
X108747993Y-99689504D01*
X108725471Y-99681446D01*
X108703847Y-99671218D01*
X108683330Y-99658921D01*
X108664117Y-99644671D01*
X108646393Y-99628607D01*
X108630329Y-99610883D01*
X108616079Y-99591670D01*
X108603782Y-99571153D01*
X108593554Y-99549529D01*
X108585496Y-99527007D01*
X108579684Y-99503803D01*
X108576174Y-99480142D01*
X108575000Y-99456250D01*
X108575000Y-98543750D01*
X108576174Y-98519858D01*
X108579684Y-98496197D01*
X108585496Y-98472993D01*
X108593554Y-98450471D01*
X108603782Y-98428847D01*
X108616079Y-98408330D01*
X108630329Y-98389117D01*
X108646393Y-98371393D01*
X108664117Y-98355329D01*
X108683330Y-98341079D01*
X108703847Y-98328782D01*
X108725471Y-98318554D01*
X108747993Y-98310496D01*
X108771197Y-98304684D01*
X108794858Y-98301174D01*
X108818750Y-98300000D01*
X109306250Y-98300000D01*
X109330142Y-98301174D01*
X109330142Y-98301174D01*
G37*
D14*
X109062500Y-99000000D03*
D11*
G36*
X111205142Y-98301174D02*
G01*
X111228803Y-98304684D01*
X111252007Y-98310496D01*
X111274529Y-98318554D01*
X111296153Y-98328782D01*
X111316670Y-98341079D01*
X111335883Y-98355329D01*
X111353607Y-98371393D01*
X111369671Y-98389117D01*
X111383921Y-98408330D01*
X111396218Y-98428847D01*
X111406446Y-98450471D01*
X111414504Y-98472993D01*
X111420316Y-98496197D01*
X111423826Y-98519858D01*
X111425000Y-98543750D01*
X111425000Y-99456250D01*
X111423826Y-99480142D01*
X111420316Y-99503803D01*
X111414504Y-99527007D01*
X111406446Y-99549529D01*
X111396218Y-99571153D01*
X111383921Y-99591670D01*
X111369671Y-99610883D01*
X111353607Y-99628607D01*
X111335883Y-99644671D01*
X111316670Y-99658921D01*
X111296153Y-99671218D01*
X111274529Y-99681446D01*
X111252007Y-99689504D01*
X111228803Y-99695316D01*
X111205142Y-99698826D01*
X111181250Y-99700000D01*
X110693750Y-99700000D01*
X110669858Y-99698826D01*
X110646197Y-99695316D01*
X110622993Y-99689504D01*
X110600471Y-99681446D01*
X110578847Y-99671218D01*
X110558330Y-99658921D01*
X110539117Y-99644671D01*
X110521393Y-99628607D01*
X110505329Y-99610883D01*
X110491079Y-99591670D01*
X110478782Y-99571153D01*
X110468554Y-99549529D01*
X110460496Y-99527007D01*
X110454684Y-99503803D01*
X110451174Y-99480142D01*
X110450000Y-99456250D01*
X110450000Y-98543750D01*
X110451174Y-98519858D01*
X110454684Y-98496197D01*
X110460496Y-98472993D01*
X110468554Y-98450471D01*
X110478782Y-98428847D01*
X110491079Y-98408330D01*
X110505329Y-98389117D01*
X110521393Y-98371393D01*
X110539117Y-98355329D01*
X110558330Y-98341079D01*
X110578847Y-98328782D01*
X110600471Y-98318554D01*
X110622993Y-98310496D01*
X110646197Y-98304684D01*
X110669858Y-98301174D01*
X110693750Y-98300000D01*
X111181250Y-98300000D01*
X111205142Y-98301174D01*
X111205142Y-98301174D01*
G37*
D14*
X110937500Y-99000000D03*
D15*
X111250000Y-109450000D03*
D16*
X110000000Y-106550000D03*
D15*
X108750000Y-109450000D03*
D11*
G36*
X102330142Y-96301174D02*
G01*
X102353803Y-96304684D01*
X102377007Y-96310496D01*
X102399529Y-96318554D01*
X102421153Y-96328782D01*
X102441670Y-96341079D01*
X102460883Y-96355329D01*
X102478607Y-96371393D01*
X102494671Y-96389117D01*
X102508921Y-96408330D01*
X102521218Y-96428847D01*
X102531446Y-96450471D01*
X102539504Y-96472993D01*
X102545316Y-96496197D01*
X102548826Y-96519858D01*
X102550000Y-96543750D01*
X102550000Y-97456250D01*
X102548826Y-97480142D01*
X102545316Y-97503803D01*
X102539504Y-97527007D01*
X102531446Y-97549529D01*
X102521218Y-97571153D01*
X102508921Y-97591670D01*
X102494671Y-97610883D01*
X102478607Y-97628607D01*
X102460883Y-97644671D01*
X102441670Y-97658921D01*
X102421153Y-97671218D01*
X102399529Y-97681446D01*
X102377007Y-97689504D01*
X102353803Y-97695316D01*
X102330142Y-97698826D01*
X102306250Y-97700000D01*
X101818750Y-97700000D01*
X101794858Y-97698826D01*
X101771197Y-97695316D01*
X101747993Y-97689504D01*
X101725471Y-97681446D01*
X101703847Y-97671218D01*
X101683330Y-97658921D01*
X101664117Y-97644671D01*
X101646393Y-97628607D01*
X101630329Y-97610883D01*
X101616079Y-97591670D01*
X101603782Y-97571153D01*
X101593554Y-97549529D01*
X101585496Y-97527007D01*
X101579684Y-97503803D01*
X101576174Y-97480142D01*
X101575000Y-97456250D01*
X101575000Y-96543750D01*
X101576174Y-96519858D01*
X101579684Y-96496197D01*
X101585496Y-96472993D01*
X101593554Y-96450471D01*
X101603782Y-96428847D01*
X101616079Y-96408330D01*
X101630329Y-96389117D01*
X101646393Y-96371393D01*
X101664117Y-96355329D01*
X101683330Y-96341079D01*
X101703847Y-96328782D01*
X101725471Y-96318554D01*
X101747993Y-96310496D01*
X101771197Y-96304684D01*
X101794858Y-96301174D01*
X101818750Y-96300000D01*
X102306250Y-96300000D01*
X102330142Y-96301174D01*
X102330142Y-96301174D01*
G37*
D14*
X102062500Y-97000000D03*
D11*
G36*
X104205142Y-96301174D02*
G01*
X104228803Y-96304684D01*
X104252007Y-96310496D01*
X104274529Y-96318554D01*
X104296153Y-96328782D01*
X104316670Y-96341079D01*
X104335883Y-96355329D01*
X104353607Y-96371393D01*
X104369671Y-96389117D01*
X104383921Y-96408330D01*
X104396218Y-96428847D01*
X104406446Y-96450471D01*
X104414504Y-96472993D01*
X104420316Y-96496197D01*
X104423826Y-96519858D01*
X104425000Y-96543750D01*
X104425000Y-97456250D01*
X104423826Y-97480142D01*
X104420316Y-97503803D01*
X104414504Y-97527007D01*
X104406446Y-97549529D01*
X104396218Y-97571153D01*
X104383921Y-97591670D01*
X104369671Y-97610883D01*
X104353607Y-97628607D01*
X104335883Y-97644671D01*
X104316670Y-97658921D01*
X104296153Y-97671218D01*
X104274529Y-97681446D01*
X104252007Y-97689504D01*
X104228803Y-97695316D01*
X104205142Y-97698826D01*
X104181250Y-97700000D01*
X103693750Y-97700000D01*
X103669858Y-97698826D01*
X103646197Y-97695316D01*
X103622993Y-97689504D01*
X103600471Y-97681446D01*
X103578847Y-97671218D01*
X103558330Y-97658921D01*
X103539117Y-97644671D01*
X103521393Y-97628607D01*
X103505329Y-97610883D01*
X103491079Y-97591670D01*
X103478782Y-97571153D01*
X103468554Y-97549529D01*
X103460496Y-97527007D01*
X103454684Y-97503803D01*
X103451174Y-97480142D01*
X103450000Y-97456250D01*
X103450000Y-96543750D01*
X103451174Y-96519858D01*
X103454684Y-96496197D01*
X103460496Y-96472993D01*
X103468554Y-96450471D01*
X103478782Y-96428847D01*
X103491079Y-96408330D01*
X103505329Y-96389117D01*
X103521393Y-96371393D01*
X103539117Y-96355329D01*
X103558330Y-96341079D01*
X103578847Y-96328782D01*
X103600471Y-96318554D01*
X103622993Y-96310496D01*
X103646197Y-96304684D01*
X103669858Y-96301174D01*
X103693750Y-96300000D01*
X104181250Y-96300000D01*
X104205142Y-96301174D01*
X104205142Y-96301174D01*
G37*
D14*
X103937500Y-97000000D03*
D11*
G36*
X102267642Y-98301174D02*
G01*
X102291303Y-98304684D01*
X102314507Y-98310496D01*
X102337029Y-98318554D01*
X102358653Y-98328782D01*
X102379170Y-98341079D01*
X102398383Y-98355329D01*
X102416107Y-98371393D01*
X102432171Y-98389117D01*
X102446421Y-98408330D01*
X102458718Y-98428847D01*
X102468946Y-98450471D01*
X102477004Y-98472993D01*
X102482816Y-98496197D01*
X102486326Y-98519858D01*
X102487500Y-98543750D01*
X102487500Y-99456250D01*
X102486326Y-99480142D01*
X102482816Y-99503803D01*
X102477004Y-99527007D01*
X102468946Y-99549529D01*
X102458718Y-99571153D01*
X102446421Y-99591670D01*
X102432171Y-99610883D01*
X102416107Y-99628607D01*
X102398383Y-99644671D01*
X102379170Y-99658921D01*
X102358653Y-99671218D01*
X102337029Y-99681446D01*
X102314507Y-99689504D01*
X102291303Y-99695316D01*
X102267642Y-99698826D01*
X102243750Y-99700000D01*
X101756250Y-99700000D01*
X101732358Y-99698826D01*
X101708697Y-99695316D01*
X101685493Y-99689504D01*
X101662971Y-99681446D01*
X101641347Y-99671218D01*
X101620830Y-99658921D01*
X101601617Y-99644671D01*
X101583893Y-99628607D01*
X101567829Y-99610883D01*
X101553579Y-99591670D01*
X101541282Y-99571153D01*
X101531054Y-99549529D01*
X101522996Y-99527007D01*
X101517184Y-99503803D01*
X101513674Y-99480142D01*
X101512500Y-99456250D01*
X101512500Y-98543750D01*
X101513674Y-98519858D01*
X101517184Y-98496197D01*
X101522996Y-98472993D01*
X101531054Y-98450471D01*
X101541282Y-98428847D01*
X101553579Y-98408330D01*
X101567829Y-98389117D01*
X101583893Y-98371393D01*
X101601617Y-98355329D01*
X101620830Y-98341079D01*
X101641347Y-98328782D01*
X101662971Y-98318554D01*
X101685493Y-98310496D01*
X101708697Y-98304684D01*
X101732358Y-98301174D01*
X101756250Y-98300000D01*
X102243750Y-98300000D01*
X102267642Y-98301174D01*
X102267642Y-98301174D01*
G37*
D14*
X102000000Y-99000000D03*
D11*
G36*
X104142642Y-98301174D02*
G01*
X104166303Y-98304684D01*
X104189507Y-98310496D01*
X104212029Y-98318554D01*
X104233653Y-98328782D01*
X104254170Y-98341079D01*
X104273383Y-98355329D01*
X104291107Y-98371393D01*
X104307171Y-98389117D01*
X104321421Y-98408330D01*
X104333718Y-98428847D01*
X104343946Y-98450471D01*
X104352004Y-98472993D01*
X104357816Y-98496197D01*
X104361326Y-98519858D01*
X104362500Y-98543750D01*
X104362500Y-99456250D01*
X104361326Y-99480142D01*
X104357816Y-99503803D01*
X104352004Y-99527007D01*
X104343946Y-99549529D01*
X104333718Y-99571153D01*
X104321421Y-99591670D01*
X104307171Y-99610883D01*
X104291107Y-99628607D01*
X104273383Y-99644671D01*
X104254170Y-99658921D01*
X104233653Y-99671218D01*
X104212029Y-99681446D01*
X104189507Y-99689504D01*
X104166303Y-99695316D01*
X104142642Y-99698826D01*
X104118750Y-99700000D01*
X103631250Y-99700000D01*
X103607358Y-99698826D01*
X103583697Y-99695316D01*
X103560493Y-99689504D01*
X103537971Y-99681446D01*
X103516347Y-99671218D01*
X103495830Y-99658921D01*
X103476617Y-99644671D01*
X103458893Y-99628607D01*
X103442829Y-99610883D01*
X103428579Y-99591670D01*
X103416282Y-99571153D01*
X103406054Y-99549529D01*
X103397996Y-99527007D01*
X103392184Y-99503803D01*
X103388674Y-99480142D01*
X103387500Y-99456250D01*
X103387500Y-98543750D01*
X103388674Y-98519858D01*
X103392184Y-98496197D01*
X103397996Y-98472993D01*
X103406054Y-98450471D01*
X103416282Y-98428847D01*
X103428579Y-98408330D01*
X103442829Y-98389117D01*
X103458893Y-98371393D01*
X103476617Y-98355329D01*
X103495830Y-98341079D01*
X103516347Y-98328782D01*
X103537971Y-98318554D01*
X103560493Y-98310496D01*
X103583697Y-98304684D01*
X103607358Y-98301174D01*
X103631250Y-98300000D01*
X104118750Y-98300000D01*
X104142642Y-98301174D01*
X104142642Y-98301174D01*
G37*
D14*
X103875000Y-99000000D03*
D15*
X104250000Y-109450000D03*
D16*
X103000000Y-106550000D03*
D15*
X101750000Y-109450000D03*
D11*
G36*
X95330142Y-96301174D02*
G01*
X95353803Y-96304684D01*
X95377007Y-96310496D01*
X95399529Y-96318554D01*
X95421153Y-96328782D01*
X95441670Y-96341079D01*
X95460883Y-96355329D01*
X95478607Y-96371393D01*
X95494671Y-96389117D01*
X95508921Y-96408330D01*
X95521218Y-96428847D01*
X95531446Y-96450471D01*
X95539504Y-96472993D01*
X95545316Y-96496197D01*
X95548826Y-96519858D01*
X95550000Y-96543750D01*
X95550000Y-97456250D01*
X95548826Y-97480142D01*
X95545316Y-97503803D01*
X95539504Y-97527007D01*
X95531446Y-97549529D01*
X95521218Y-97571153D01*
X95508921Y-97591670D01*
X95494671Y-97610883D01*
X95478607Y-97628607D01*
X95460883Y-97644671D01*
X95441670Y-97658921D01*
X95421153Y-97671218D01*
X95399529Y-97681446D01*
X95377007Y-97689504D01*
X95353803Y-97695316D01*
X95330142Y-97698826D01*
X95306250Y-97700000D01*
X94818750Y-97700000D01*
X94794858Y-97698826D01*
X94771197Y-97695316D01*
X94747993Y-97689504D01*
X94725471Y-97681446D01*
X94703847Y-97671218D01*
X94683330Y-97658921D01*
X94664117Y-97644671D01*
X94646393Y-97628607D01*
X94630329Y-97610883D01*
X94616079Y-97591670D01*
X94603782Y-97571153D01*
X94593554Y-97549529D01*
X94585496Y-97527007D01*
X94579684Y-97503803D01*
X94576174Y-97480142D01*
X94575000Y-97456250D01*
X94575000Y-96543750D01*
X94576174Y-96519858D01*
X94579684Y-96496197D01*
X94585496Y-96472993D01*
X94593554Y-96450471D01*
X94603782Y-96428847D01*
X94616079Y-96408330D01*
X94630329Y-96389117D01*
X94646393Y-96371393D01*
X94664117Y-96355329D01*
X94683330Y-96341079D01*
X94703847Y-96328782D01*
X94725471Y-96318554D01*
X94747993Y-96310496D01*
X94771197Y-96304684D01*
X94794858Y-96301174D01*
X94818750Y-96300000D01*
X95306250Y-96300000D01*
X95330142Y-96301174D01*
X95330142Y-96301174D01*
G37*
D14*
X95062500Y-97000000D03*
D11*
G36*
X97205142Y-96301174D02*
G01*
X97228803Y-96304684D01*
X97252007Y-96310496D01*
X97274529Y-96318554D01*
X97296153Y-96328782D01*
X97316670Y-96341079D01*
X97335883Y-96355329D01*
X97353607Y-96371393D01*
X97369671Y-96389117D01*
X97383921Y-96408330D01*
X97396218Y-96428847D01*
X97406446Y-96450471D01*
X97414504Y-96472993D01*
X97420316Y-96496197D01*
X97423826Y-96519858D01*
X97425000Y-96543750D01*
X97425000Y-97456250D01*
X97423826Y-97480142D01*
X97420316Y-97503803D01*
X97414504Y-97527007D01*
X97406446Y-97549529D01*
X97396218Y-97571153D01*
X97383921Y-97591670D01*
X97369671Y-97610883D01*
X97353607Y-97628607D01*
X97335883Y-97644671D01*
X97316670Y-97658921D01*
X97296153Y-97671218D01*
X97274529Y-97681446D01*
X97252007Y-97689504D01*
X97228803Y-97695316D01*
X97205142Y-97698826D01*
X97181250Y-97700000D01*
X96693750Y-97700000D01*
X96669858Y-97698826D01*
X96646197Y-97695316D01*
X96622993Y-97689504D01*
X96600471Y-97681446D01*
X96578847Y-97671218D01*
X96558330Y-97658921D01*
X96539117Y-97644671D01*
X96521393Y-97628607D01*
X96505329Y-97610883D01*
X96491079Y-97591670D01*
X96478782Y-97571153D01*
X96468554Y-97549529D01*
X96460496Y-97527007D01*
X96454684Y-97503803D01*
X96451174Y-97480142D01*
X96450000Y-97456250D01*
X96450000Y-96543750D01*
X96451174Y-96519858D01*
X96454684Y-96496197D01*
X96460496Y-96472993D01*
X96468554Y-96450471D01*
X96478782Y-96428847D01*
X96491079Y-96408330D01*
X96505329Y-96389117D01*
X96521393Y-96371393D01*
X96539117Y-96355329D01*
X96558330Y-96341079D01*
X96578847Y-96328782D01*
X96600471Y-96318554D01*
X96622993Y-96310496D01*
X96646197Y-96304684D01*
X96669858Y-96301174D01*
X96693750Y-96300000D01*
X97181250Y-96300000D01*
X97205142Y-96301174D01*
X97205142Y-96301174D01*
G37*
D14*
X96937500Y-97000000D03*
D11*
G36*
X95330142Y-98301174D02*
G01*
X95353803Y-98304684D01*
X95377007Y-98310496D01*
X95399529Y-98318554D01*
X95421153Y-98328782D01*
X95441670Y-98341079D01*
X95460883Y-98355329D01*
X95478607Y-98371393D01*
X95494671Y-98389117D01*
X95508921Y-98408330D01*
X95521218Y-98428847D01*
X95531446Y-98450471D01*
X95539504Y-98472993D01*
X95545316Y-98496197D01*
X95548826Y-98519858D01*
X95550000Y-98543750D01*
X95550000Y-99456250D01*
X95548826Y-99480142D01*
X95545316Y-99503803D01*
X95539504Y-99527007D01*
X95531446Y-99549529D01*
X95521218Y-99571153D01*
X95508921Y-99591670D01*
X95494671Y-99610883D01*
X95478607Y-99628607D01*
X95460883Y-99644671D01*
X95441670Y-99658921D01*
X95421153Y-99671218D01*
X95399529Y-99681446D01*
X95377007Y-99689504D01*
X95353803Y-99695316D01*
X95330142Y-99698826D01*
X95306250Y-99700000D01*
X94818750Y-99700000D01*
X94794858Y-99698826D01*
X94771197Y-99695316D01*
X94747993Y-99689504D01*
X94725471Y-99681446D01*
X94703847Y-99671218D01*
X94683330Y-99658921D01*
X94664117Y-99644671D01*
X94646393Y-99628607D01*
X94630329Y-99610883D01*
X94616079Y-99591670D01*
X94603782Y-99571153D01*
X94593554Y-99549529D01*
X94585496Y-99527007D01*
X94579684Y-99503803D01*
X94576174Y-99480142D01*
X94575000Y-99456250D01*
X94575000Y-98543750D01*
X94576174Y-98519858D01*
X94579684Y-98496197D01*
X94585496Y-98472993D01*
X94593554Y-98450471D01*
X94603782Y-98428847D01*
X94616079Y-98408330D01*
X94630329Y-98389117D01*
X94646393Y-98371393D01*
X94664117Y-98355329D01*
X94683330Y-98341079D01*
X94703847Y-98328782D01*
X94725471Y-98318554D01*
X94747993Y-98310496D01*
X94771197Y-98304684D01*
X94794858Y-98301174D01*
X94818750Y-98300000D01*
X95306250Y-98300000D01*
X95330142Y-98301174D01*
X95330142Y-98301174D01*
G37*
D14*
X95062500Y-99000000D03*
D11*
G36*
X97205142Y-98301174D02*
G01*
X97228803Y-98304684D01*
X97252007Y-98310496D01*
X97274529Y-98318554D01*
X97296153Y-98328782D01*
X97316670Y-98341079D01*
X97335883Y-98355329D01*
X97353607Y-98371393D01*
X97369671Y-98389117D01*
X97383921Y-98408330D01*
X97396218Y-98428847D01*
X97406446Y-98450471D01*
X97414504Y-98472993D01*
X97420316Y-98496197D01*
X97423826Y-98519858D01*
X97425000Y-98543750D01*
X97425000Y-99456250D01*
X97423826Y-99480142D01*
X97420316Y-99503803D01*
X97414504Y-99527007D01*
X97406446Y-99549529D01*
X97396218Y-99571153D01*
X97383921Y-99591670D01*
X97369671Y-99610883D01*
X97353607Y-99628607D01*
X97335883Y-99644671D01*
X97316670Y-99658921D01*
X97296153Y-99671218D01*
X97274529Y-99681446D01*
X97252007Y-99689504D01*
X97228803Y-99695316D01*
X97205142Y-99698826D01*
X97181250Y-99700000D01*
X96693750Y-99700000D01*
X96669858Y-99698826D01*
X96646197Y-99695316D01*
X96622993Y-99689504D01*
X96600471Y-99681446D01*
X96578847Y-99671218D01*
X96558330Y-99658921D01*
X96539117Y-99644671D01*
X96521393Y-99628607D01*
X96505329Y-99610883D01*
X96491079Y-99591670D01*
X96478782Y-99571153D01*
X96468554Y-99549529D01*
X96460496Y-99527007D01*
X96454684Y-99503803D01*
X96451174Y-99480142D01*
X96450000Y-99456250D01*
X96450000Y-98543750D01*
X96451174Y-98519858D01*
X96454684Y-98496197D01*
X96460496Y-98472993D01*
X96468554Y-98450471D01*
X96478782Y-98428847D01*
X96491079Y-98408330D01*
X96505329Y-98389117D01*
X96521393Y-98371393D01*
X96539117Y-98355329D01*
X96558330Y-98341079D01*
X96578847Y-98328782D01*
X96600471Y-98318554D01*
X96622993Y-98310496D01*
X96646197Y-98304684D01*
X96669858Y-98301174D01*
X96693750Y-98300000D01*
X97181250Y-98300000D01*
X97205142Y-98301174D01*
X97205142Y-98301174D01*
G37*
D14*
X96937500Y-99000000D03*
D15*
X97250000Y-109450000D03*
D16*
X96000000Y-106550000D03*
D15*
X94750000Y-109450000D03*
D11*
G36*
X88330142Y-96301174D02*
G01*
X88353803Y-96304684D01*
X88377007Y-96310496D01*
X88399529Y-96318554D01*
X88421153Y-96328782D01*
X88441670Y-96341079D01*
X88460883Y-96355329D01*
X88478607Y-96371393D01*
X88494671Y-96389117D01*
X88508921Y-96408330D01*
X88521218Y-96428847D01*
X88531446Y-96450471D01*
X88539504Y-96472993D01*
X88545316Y-96496197D01*
X88548826Y-96519858D01*
X88550000Y-96543750D01*
X88550000Y-97456250D01*
X88548826Y-97480142D01*
X88545316Y-97503803D01*
X88539504Y-97527007D01*
X88531446Y-97549529D01*
X88521218Y-97571153D01*
X88508921Y-97591670D01*
X88494671Y-97610883D01*
X88478607Y-97628607D01*
X88460883Y-97644671D01*
X88441670Y-97658921D01*
X88421153Y-97671218D01*
X88399529Y-97681446D01*
X88377007Y-97689504D01*
X88353803Y-97695316D01*
X88330142Y-97698826D01*
X88306250Y-97700000D01*
X87818750Y-97700000D01*
X87794858Y-97698826D01*
X87771197Y-97695316D01*
X87747993Y-97689504D01*
X87725471Y-97681446D01*
X87703847Y-97671218D01*
X87683330Y-97658921D01*
X87664117Y-97644671D01*
X87646393Y-97628607D01*
X87630329Y-97610883D01*
X87616079Y-97591670D01*
X87603782Y-97571153D01*
X87593554Y-97549529D01*
X87585496Y-97527007D01*
X87579684Y-97503803D01*
X87576174Y-97480142D01*
X87575000Y-97456250D01*
X87575000Y-96543750D01*
X87576174Y-96519858D01*
X87579684Y-96496197D01*
X87585496Y-96472993D01*
X87593554Y-96450471D01*
X87603782Y-96428847D01*
X87616079Y-96408330D01*
X87630329Y-96389117D01*
X87646393Y-96371393D01*
X87664117Y-96355329D01*
X87683330Y-96341079D01*
X87703847Y-96328782D01*
X87725471Y-96318554D01*
X87747993Y-96310496D01*
X87771197Y-96304684D01*
X87794858Y-96301174D01*
X87818750Y-96300000D01*
X88306250Y-96300000D01*
X88330142Y-96301174D01*
X88330142Y-96301174D01*
G37*
D14*
X88062500Y-97000000D03*
D11*
G36*
X90205142Y-96301174D02*
G01*
X90228803Y-96304684D01*
X90252007Y-96310496D01*
X90274529Y-96318554D01*
X90296153Y-96328782D01*
X90316670Y-96341079D01*
X90335883Y-96355329D01*
X90353607Y-96371393D01*
X90369671Y-96389117D01*
X90383921Y-96408330D01*
X90396218Y-96428847D01*
X90406446Y-96450471D01*
X90414504Y-96472993D01*
X90420316Y-96496197D01*
X90423826Y-96519858D01*
X90425000Y-96543750D01*
X90425000Y-97456250D01*
X90423826Y-97480142D01*
X90420316Y-97503803D01*
X90414504Y-97527007D01*
X90406446Y-97549529D01*
X90396218Y-97571153D01*
X90383921Y-97591670D01*
X90369671Y-97610883D01*
X90353607Y-97628607D01*
X90335883Y-97644671D01*
X90316670Y-97658921D01*
X90296153Y-97671218D01*
X90274529Y-97681446D01*
X90252007Y-97689504D01*
X90228803Y-97695316D01*
X90205142Y-97698826D01*
X90181250Y-97700000D01*
X89693750Y-97700000D01*
X89669858Y-97698826D01*
X89646197Y-97695316D01*
X89622993Y-97689504D01*
X89600471Y-97681446D01*
X89578847Y-97671218D01*
X89558330Y-97658921D01*
X89539117Y-97644671D01*
X89521393Y-97628607D01*
X89505329Y-97610883D01*
X89491079Y-97591670D01*
X89478782Y-97571153D01*
X89468554Y-97549529D01*
X89460496Y-97527007D01*
X89454684Y-97503803D01*
X89451174Y-97480142D01*
X89450000Y-97456250D01*
X89450000Y-96543750D01*
X89451174Y-96519858D01*
X89454684Y-96496197D01*
X89460496Y-96472993D01*
X89468554Y-96450471D01*
X89478782Y-96428847D01*
X89491079Y-96408330D01*
X89505329Y-96389117D01*
X89521393Y-96371393D01*
X89539117Y-96355329D01*
X89558330Y-96341079D01*
X89578847Y-96328782D01*
X89600471Y-96318554D01*
X89622993Y-96310496D01*
X89646197Y-96304684D01*
X89669858Y-96301174D01*
X89693750Y-96300000D01*
X90181250Y-96300000D01*
X90205142Y-96301174D01*
X90205142Y-96301174D01*
G37*
D14*
X89937500Y-97000000D03*
D11*
G36*
X88330142Y-98301174D02*
G01*
X88353803Y-98304684D01*
X88377007Y-98310496D01*
X88399529Y-98318554D01*
X88421153Y-98328782D01*
X88441670Y-98341079D01*
X88460883Y-98355329D01*
X88478607Y-98371393D01*
X88494671Y-98389117D01*
X88508921Y-98408330D01*
X88521218Y-98428847D01*
X88531446Y-98450471D01*
X88539504Y-98472993D01*
X88545316Y-98496197D01*
X88548826Y-98519858D01*
X88550000Y-98543750D01*
X88550000Y-99456250D01*
X88548826Y-99480142D01*
X88545316Y-99503803D01*
X88539504Y-99527007D01*
X88531446Y-99549529D01*
X88521218Y-99571153D01*
X88508921Y-99591670D01*
X88494671Y-99610883D01*
X88478607Y-99628607D01*
X88460883Y-99644671D01*
X88441670Y-99658921D01*
X88421153Y-99671218D01*
X88399529Y-99681446D01*
X88377007Y-99689504D01*
X88353803Y-99695316D01*
X88330142Y-99698826D01*
X88306250Y-99700000D01*
X87818750Y-99700000D01*
X87794858Y-99698826D01*
X87771197Y-99695316D01*
X87747993Y-99689504D01*
X87725471Y-99681446D01*
X87703847Y-99671218D01*
X87683330Y-99658921D01*
X87664117Y-99644671D01*
X87646393Y-99628607D01*
X87630329Y-99610883D01*
X87616079Y-99591670D01*
X87603782Y-99571153D01*
X87593554Y-99549529D01*
X87585496Y-99527007D01*
X87579684Y-99503803D01*
X87576174Y-99480142D01*
X87575000Y-99456250D01*
X87575000Y-98543750D01*
X87576174Y-98519858D01*
X87579684Y-98496197D01*
X87585496Y-98472993D01*
X87593554Y-98450471D01*
X87603782Y-98428847D01*
X87616079Y-98408330D01*
X87630329Y-98389117D01*
X87646393Y-98371393D01*
X87664117Y-98355329D01*
X87683330Y-98341079D01*
X87703847Y-98328782D01*
X87725471Y-98318554D01*
X87747993Y-98310496D01*
X87771197Y-98304684D01*
X87794858Y-98301174D01*
X87818750Y-98300000D01*
X88306250Y-98300000D01*
X88330142Y-98301174D01*
X88330142Y-98301174D01*
G37*
D14*
X88062500Y-99000000D03*
D11*
G36*
X90205142Y-98301174D02*
G01*
X90228803Y-98304684D01*
X90252007Y-98310496D01*
X90274529Y-98318554D01*
X90296153Y-98328782D01*
X90316670Y-98341079D01*
X90335883Y-98355329D01*
X90353607Y-98371393D01*
X90369671Y-98389117D01*
X90383921Y-98408330D01*
X90396218Y-98428847D01*
X90406446Y-98450471D01*
X90414504Y-98472993D01*
X90420316Y-98496197D01*
X90423826Y-98519858D01*
X90425000Y-98543750D01*
X90425000Y-99456250D01*
X90423826Y-99480142D01*
X90420316Y-99503803D01*
X90414504Y-99527007D01*
X90406446Y-99549529D01*
X90396218Y-99571153D01*
X90383921Y-99591670D01*
X90369671Y-99610883D01*
X90353607Y-99628607D01*
X90335883Y-99644671D01*
X90316670Y-99658921D01*
X90296153Y-99671218D01*
X90274529Y-99681446D01*
X90252007Y-99689504D01*
X90228803Y-99695316D01*
X90205142Y-99698826D01*
X90181250Y-99700000D01*
X89693750Y-99700000D01*
X89669858Y-99698826D01*
X89646197Y-99695316D01*
X89622993Y-99689504D01*
X89600471Y-99681446D01*
X89578847Y-99671218D01*
X89558330Y-99658921D01*
X89539117Y-99644671D01*
X89521393Y-99628607D01*
X89505329Y-99610883D01*
X89491079Y-99591670D01*
X89478782Y-99571153D01*
X89468554Y-99549529D01*
X89460496Y-99527007D01*
X89454684Y-99503803D01*
X89451174Y-99480142D01*
X89450000Y-99456250D01*
X89450000Y-98543750D01*
X89451174Y-98519858D01*
X89454684Y-98496197D01*
X89460496Y-98472993D01*
X89468554Y-98450471D01*
X89478782Y-98428847D01*
X89491079Y-98408330D01*
X89505329Y-98389117D01*
X89521393Y-98371393D01*
X89539117Y-98355329D01*
X89558330Y-98341079D01*
X89578847Y-98328782D01*
X89600471Y-98318554D01*
X89622993Y-98310496D01*
X89646197Y-98304684D01*
X89669858Y-98301174D01*
X89693750Y-98300000D01*
X90181250Y-98300000D01*
X90205142Y-98301174D01*
X90205142Y-98301174D01*
G37*
D14*
X89937500Y-99000000D03*
D15*
X90250000Y-109450000D03*
D16*
X89000000Y-106550000D03*
D15*
X87750000Y-109450000D03*
D11*
G36*
X87830142Y-115801174D02*
G01*
X87853803Y-115804684D01*
X87877007Y-115810496D01*
X87899529Y-115818554D01*
X87921153Y-115828782D01*
X87941670Y-115841079D01*
X87960883Y-115855329D01*
X87978607Y-115871393D01*
X87994671Y-115889117D01*
X88008921Y-115908330D01*
X88021218Y-115928847D01*
X88031446Y-115950471D01*
X88039504Y-115972993D01*
X88045316Y-115996197D01*
X88048826Y-116019858D01*
X88050000Y-116043750D01*
X88050000Y-116956250D01*
X88048826Y-116980142D01*
X88045316Y-117003803D01*
X88039504Y-117027007D01*
X88031446Y-117049529D01*
X88021218Y-117071153D01*
X88008921Y-117091670D01*
X87994671Y-117110883D01*
X87978607Y-117128607D01*
X87960883Y-117144671D01*
X87941670Y-117158921D01*
X87921153Y-117171218D01*
X87899529Y-117181446D01*
X87877007Y-117189504D01*
X87853803Y-117195316D01*
X87830142Y-117198826D01*
X87806250Y-117200000D01*
X87318750Y-117200000D01*
X87294858Y-117198826D01*
X87271197Y-117195316D01*
X87247993Y-117189504D01*
X87225471Y-117181446D01*
X87203847Y-117171218D01*
X87183330Y-117158921D01*
X87164117Y-117144671D01*
X87146393Y-117128607D01*
X87130329Y-117110883D01*
X87116079Y-117091670D01*
X87103782Y-117071153D01*
X87093554Y-117049529D01*
X87085496Y-117027007D01*
X87079684Y-117003803D01*
X87076174Y-116980142D01*
X87075000Y-116956250D01*
X87075000Y-116043750D01*
X87076174Y-116019858D01*
X87079684Y-115996197D01*
X87085496Y-115972993D01*
X87093554Y-115950471D01*
X87103782Y-115928847D01*
X87116079Y-115908330D01*
X87130329Y-115889117D01*
X87146393Y-115871393D01*
X87164117Y-115855329D01*
X87183330Y-115841079D01*
X87203847Y-115828782D01*
X87225471Y-115818554D01*
X87247993Y-115810496D01*
X87271197Y-115804684D01*
X87294858Y-115801174D01*
X87318750Y-115800000D01*
X87806250Y-115800000D01*
X87830142Y-115801174D01*
X87830142Y-115801174D01*
G37*
D14*
X87562500Y-116500000D03*
D11*
G36*
X89705142Y-115801174D02*
G01*
X89728803Y-115804684D01*
X89752007Y-115810496D01*
X89774529Y-115818554D01*
X89796153Y-115828782D01*
X89816670Y-115841079D01*
X89835883Y-115855329D01*
X89853607Y-115871393D01*
X89869671Y-115889117D01*
X89883921Y-115908330D01*
X89896218Y-115928847D01*
X89906446Y-115950471D01*
X89914504Y-115972993D01*
X89920316Y-115996197D01*
X89923826Y-116019858D01*
X89925000Y-116043750D01*
X89925000Y-116956250D01*
X89923826Y-116980142D01*
X89920316Y-117003803D01*
X89914504Y-117027007D01*
X89906446Y-117049529D01*
X89896218Y-117071153D01*
X89883921Y-117091670D01*
X89869671Y-117110883D01*
X89853607Y-117128607D01*
X89835883Y-117144671D01*
X89816670Y-117158921D01*
X89796153Y-117171218D01*
X89774529Y-117181446D01*
X89752007Y-117189504D01*
X89728803Y-117195316D01*
X89705142Y-117198826D01*
X89681250Y-117200000D01*
X89193750Y-117200000D01*
X89169858Y-117198826D01*
X89146197Y-117195316D01*
X89122993Y-117189504D01*
X89100471Y-117181446D01*
X89078847Y-117171218D01*
X89058330Y-117158921D01*
X89039117Y-117144671D01*
X89021393Y-117128607D01*
X89005329Y-117110883D01*
X88991079Y-117091670D01*
X88978782Y-117071153D01*
X88968554Y-117049529D01*
X88960496Y-117027007D01*
X88954684Y-117003803D01*
X88951174Y-116980142D01*
X88950000Y-116956250D01*
X88950000Y-116043750D01*
X88951174Y-116019858D01*
X88954684Y-115996197D01*
X88960496Y-115972993D01*
X88968554Y-115950471D01*
X88978782Y-115928847D01*
X88991079Y-115908330D01*
X89005329Y-115889117D01*
X89021393Y-115871393D01*
X89039117Y-115855329D01*
X89058330Y-115841079D01*
X89078847Y-115828782D01*
X89100471Y-115818554D01*
X89122993Y-115810496D01*
X89146197Y-115804684D01*
X89169858Y-115801174D01*
X89193750Y-115800000D01*
X89681250Y-115800000D01*
X89705142Y-115801174D01*
X89705142Y-115801174D01*
G37*
D14*
X89437500Y-116500000D03*
D11*
G36*
X97330142Y-115801174D02*
G01*
X97353803Y-115804684D01*
X97377007Y-115810496D01*
X97399529Y-115818554D01*
X97421153Y-115828782D01*
X97441670Y-115841079D01*
X97460883Y-115855329D01*
X97478607Y-115871393D01*
X97494671Y-115889117D01*
X97508921Y-115908330D01*
X97521218Y-115928847D01*
X97531446Y-115950471D01*
X97539504Y-115972993D01*
X97545316Y-115996197D01*
X97548826Y-116019858D01*
X97550000Y-116043750D01*
X97550000Y-116956250D01*
X97548826Y-116980142D01*
X97545316Y-117003803D01*
X97539504Y-117027007D01*
X97531446Y-117049529D01*
X97521218Y-117071153D01*
X97508921Y-117091670D01*
X97494671Y-117110883D01*
X97478607Y-117128607D01*
X97460883Y-117144671D01*
X97441670Y-117158921D01*
X97421153Y-117171218D01*
X97399529Y-117181446D01*
X97377007Y-117189504D01*
X97353803Y-117195316D01*
X97330142Y-117198826D01*
X97306250Y-117200000D01*
X96818750Y-117200000D01*
X96794858Y-117198826D01*
X96771197Y-117195316D01*
X96747993Y-117189504D01*
X96725471Y-117181446D01*
X96703847Y-117171218D01*
X96683330Y-117158921D01*
X96664117Y-117144671D01*
X96646393Y-117128607D01*
X96630329Y-117110883D01*
X96616079Y-117091670D01*
X96603782Y-117071153D01*
X96593554Y-117049529D01*
X96585496Y-117027007D01*
X96579684Y-117003803D01*
X96576174Y-116980142D01*
X96575000Y-116956250D01*
X96575000Y-116043750D01*
X96576174Y-116019858D01*
X96579684Y-115996197D01*
X96585496Y-115972993D01*
X96593554Y-115950471D01*
X96603782Y-115928847D01*
X96616079Y-115908330D01*
X96630329Y-115889117D01*
X96646393Y-115871393D01*
X96664117Y-115855329D01*
X96683330Y-115841079D01*
X96703847Y-115828782D01*
X96725471Y-115818554D01*
X96747993Y-115810496D01*
X96771197Y-115804684D01*
X96794858Y-115801174D01*
X96818750Y-115800000D01*
X97306250Y-115800000D01*
X97330142Y-115801174D01*
X97330142Y-115801174D01*
G37*
D14*
X97062500Y-116500000D03*
D11*
G36*
X99205142Y-115801174D02*
G01*
X99228803Y-115804684D01*
X99252007Y-115810496D01*
X99274529Y-115818554D01*
X99296153Y-115828782D01*
X99316670Y-115841079D01*
X99335883Y-115855329D01*
X99353607Y-115871393D01*
X99369671Y-115889117D01*
X99383921Y-115908330D01*
X99396218Y-115928847D01*
X99406446Y-115950471D01*
X99414504Y-115972993D01*
X99420316Y-115996197D01*
X99423826Y-116019858D01*
X99425000Y-116043750D01*
X99425000Y-116956250D01*
X99423826Y-116980142D01*
X99420316Y-117003803D01*
X99414504Y-117027007D01*
X99406446Y-117049529D01*
X99396218Y-117071153D01*
X99383921Y-117091670D01*
X99369671Y-117110883D01*
X99353607Y-117128607D01*
X99335883Y-117144671D01*
X99316670Y-117158921D01*
X99296153Y-117171218D01*
X99274529Y-117181446D01*
X99252007Y-117189504D01*
X99228803Y-117195316D01*
X99205142Y-117198826D01*
X99181250Y-117200000D01*
X98693750Y-117200000D01*
X98669858Y-117198826D01*
X98646197Y-117195316D01*
X98622993Y-117189504D01*
X98600471Y-117181446D01*
X98578847Y-117171218D01*
X98558330Y-117158921D01*
X98539117Y-117144671D01*
X98521393Y-117128607D01*
X98505329Y-117110883D01*
X98491079Y-117091670D01*
X98478782Y-117071153D01*
X98468554Y-117049529D01*
X98460496Y-117027007D01*
X98454684Y-117003803D01*
X98451174Y-116980142D01*
X98450000Y-116956250D01*
X98450000Y-116043750D01*
X98451174Y-116019858D01*
X98454684Y-115996197D01*
X98460496Y-115972993D01*
X98468554Y-115950471D01*
X98478782Y-115928847D01*
X98491079Y-115908330D01*
X98505329Y-115889117D01*
X98521393Y-115871393D01*
X98539117Y-115855329D01*
X98558330Y-115841079D01*
X98578847Y-115828782D01*
X98600471Y-115818554D01*
X98622993Y-115810496D01*
X98646197Y-115804684D01*
X98669858Y-115801174D01*
X98693750Y-115800000D01*
X99181250Y-115800000D01*
X99205142Y-115801174D01*
X99205142Y-115801174D01*
G37*
D14*
X98937500Y-116500000D03*
D11*
G36*
X97480142Y-119951174D02*
G01*
X97503803Y-119954684D01*
X97527007Y-119960496D01*
X97549529Y-119968554D01*
X97571153Y-119978782D01*
X97591670Y-119991079D01*
X97610883Y-120005329D01*
X97628607Y-120021393D01*
X97644671Y-120039117D01*
X97658921Y-120058330D01*
X97671218Y-120078847D01*
X97681446Y-120100471D01*
X97689504Y-120122993D01*
X97695316Y-120146197D01*
X97698826Y-120169858D01*
X97700000Y-120193750D01*
X97700000Y-120681250D01*
X97698826Y-120705142D01*
X97695316Y-120728803D01*
X97689504Y-120752007D01*
X97681446Y-120774529D01*
X97671218Y-120796153D01*
X97658921Y-120816670D01*
X97644671Y-120835883D01*
X97628607Y-120853607D01*
X97610883Y-120869671D01*
X97591670Y-120883921D01*
X97571153Y-120896218D01*
X97549529Y-120906446D01*
X97527007Y-120914504D01*
X97503803Y-120920316D01*
X97480142Y-120923826D01*
X97456250Y-120925000D01*
X96543750Y-120925000D01*
X96519858Y-120923826D01*
X96496197Y-120920316D01*
X96472993Y-120914504D01*
X96450471Y-120906446D01*
X96428847Y-120896218D01*
X96408330Y-120883921D01*
X96389117Y-120869671D01*
X96371393Y-120853607D01*
X96355329Y-120835883D01*
X96341079Y-120816670D01*
X96328782Y-120796153D01*
X96318554Y-120774529D01*
X96310496Y-120752007D01*
X96304684Y-120728803D01*
X96301174Y-120705142D01*
X96300000Y-120681250D01*
X96300000Y-120193750D01*
X96301174Y-120169858D01*
X96304684Y-120146197D01*
X96310496Y-120122993D01*
X96318554Y-120100471D01*
X96328782Y-120078847D01*
X96341079Y-120058330D01*
X96355329Y-120039117D01*
X96371393Y-120021393D01*
X96389117Y-120005329D01*
X96408330Y-119991079D01*
X96428847Y-119978782D01*
X96450471Y-119968554D01*
X96472993Y-119960496D01*
X96496197Y-119954684D01*
X96519858Y-119951174D01*
X96543750Y-119950000D01*
X97456250Y-119950000D01*
X97480142Y-119951174D01*
X97480142Y-119951174D01*
G37*
D14*
X97000000Y-120437500D03*
D11*
G36*
X97480142Y-118076174D02*
G01*
X97503803Y-118079684D01*
X97527007Y-118085496D01*
X97549529Y-118093554D01*
X97571153Y-118103782D01*
X97591670Y-118116079D01*
X97610883Y-118130329D01*
X97628607Y-118146393D01*
X97644671Y-118164117D01*
X97658921Y-118183330D01*
X97671218Y-118203847D01*
X97681446Y-118225471D01*
X97689504Y-118247993D01*
X97695316Y-118271197D01*
X97698826Y-118294858D01*
X97700000Y-118318750D01*
X97700000Y-118806250D01*
X97698826Y-118830142D01*
X97695316Y-118853803D01*
X97689504Y-118877007D01*
X97681446Y-118899529D01*
X97671218Y-118921153D01*
X97658921Y-118941670D01*
X97644671Y-118960883D01*
X97628607Y-118978607D01*
X97610883Y-118994671D01*
X97591670Y-119008921D01*
X97571153Y-119021218D01*
X97549529Y-119031446D01*
X97527007Y-119039504D01*
X97503803Y-119045316D01*
X97480142Y-119048826D01*
X97456250Y-119050000D01*
X96543750Y-119050000D01*
X96519858Y-119048826D01*
X96496197Y-119045316D01*
X96472993Y-119039504D01*
X96450471Y-119031446D01*
X96428847Y-119021218D01*
X96408330Y-119008921D01*
X96389117Y-118994671D01*
X96371393Y-118978607D01*
X96355329Y-118960883D01*
X96341079Y-118941670D01*
X96328782Y-118921153D01*
X96318554Y-118899529D01*
X96310496Y-118877007D01*
X96304684Y-118853803D01*
X96301174Y-118830142D01*
X96300000Y-118806250D01*
X96300000Y-118318750D01*
X96301174Y-118294858D01*
X96304684Y-118271197D01*
X96310496Y-118247993D01*
X96318554Y-118225471D01*
X96328782Y-118203847D01*
X96341079Y-118183330D01*
X96355329Y-118164117D01*
X96371393Y-118146393D01*
X96389117Y-118130329D01*
X96408330Y-118116079D01*
X96428847Y-118103782D01*
X96450471Y-118093554D01*
X96472993Y-118085496D01*
X96496197Y-118079684D01*
X96519858Y-118076174D01*
X96543750Y-118075000D01*
X97456250Y-118075000D01*
X97480142Y-118076174D01*
X97480142Y-118076174D01*
G37*
D14*
X97000000Y-118562500D03*
D17*
X110000000Y-103500000D03*
X109050000Y-101500000D03*
X110950000Y-101500000D03*
X103000000Y-103500000D03*
X102050000Y-101500000D03*
X103950000Y-101500000D03*
X96000000Y-103500000D03*
X95050000Y-101500000D03*
X96950000Y-101500000D03*
X89000000Y-103500000D03*
X88050000Y-101500000D03*
X89950000Y-101500000D03*
D18*
X103540000Y-126500000D03*
D19*
X101000000Y-126500000D03*
D18*
X90760000Y-89500000D03*
X93300000Y-89500000D03*
X95840000Y-89500000D03*
X98380000Y-89500000D03*
X100920000Y-89500000D03*
X103460000Y-89500000D03*
D19*
X106000000Y-89500000D03*
D20*
X88460000Y-126500000D03*
D21*
X91000000Y-126500000D03*
D11*
G36*
X111499505Y-114151204D02*
G01*
X111523773Y-114154804D01*
X111547572Y-114160765D01*
X111570671Y-114169030D01*
X111592850Y-114179520D01*
X111613893Y-114192132D01*
X111633599Y-114206747D01*
X111651777Y-114223223D01*
X111668253Y-114241401D01*
X111682868Y-114261107D01*
X111695480Y-114282150D01*
X111705970Y-114304329D01*
X111714235Y-114327428D01*
X111720196Y-114351227D01*
X111723796Y-114375495D01*
X111725000Y-114399999D01*
X111725000Y-115825001D01*
X111723796Y-115849505D01*
X111720196Y-115873773D01*
X111714235Y-115897572D01*
X111705970Y-115920671D01*
X111695480Y-115942850D01*
X111682868Y-115963893D01*
X111668253Y-115983599D01*
X111651777Y-116001777D01*
X111633599Y-116018253D01*
X111613893Y-116032868D01*
X111592850Y-116045480D01*
X111570671Y-116055970D01*
X111547572Y-116064235D01*
X111523773Y-116070196D01*
X111499505Y-116073796D01*
X111475001Y-116075000D01*
X106524999Y-116075000D01*
X106500495Y-116073796D01*
X106476227Y-116070196D01*
X106452428Y-116064235D01*
X106429329Y-116055970D01*
X106407150Y-116045480D01*
X106386107Y-116032868D01*
X106366401Y-116018253D01*
X106348223Y-116001777D01*
X106331747Y-115983599D01*
X106317132Y-115963893D01*
X106304520Y-115942850D01*
X106294030Y-115920671D01*
X106285765Y-115897572D01*
X106279804Y-115873773D01*
X106276204Y-115849505D01*
X106275000Y-115825001D01*
X106275000Y-114399999D01*
X106276204Y-114375495D01*
X106279804Y-114351227D01*
X106285765Y-114327428D01*
X106294030Y-114304329D01*
X106304520Y-114282150D01*
X106317132Y-114261107D01*
X106331747Y-114241401D01*
X106348223Y-114223223D01*
X106366401Y-114206747D01*
X106386107Y-114192132D01*
X106407150Y-114179520D01*
X106429329Y-114169030D01*
X106452428Y-114160765D01*
X106476227Y-114154804D01*
X106500495Y-114151204D01*
X106524999Y-114150000D01*
X111475001Y-114150000D01*
X111499505Y-114151204D01*
X111499505Y-114151204D01*
G37*
D22*
X109000000Y-115112500D03*
D11*
G36*
X111499505Y-120926204D02*
G01*
X111523773Y-120929804D01*
X111547572Y-120935765D01*
X111570671Y-120944030D01*
X111592850Y-120954520D01*
X111613893Y-120967132D01*
X111633599Y-120981747D01*
X111651777Y-120998223D01*
X111668253Y-121016401D01*
X111682868Y-121036107D01*
X111695480Y-121057150D01*
X111705970Y-121079329D01*
X111714235Y-121102428D01*
X111720196Y-121126227D01*
X111723796Y-121150495D01*
X111725000Y-121174999D01*
X111725000Y-122600001D01*
X111723796Y-122624505D01*
X111720196Y-122648773D01*
X111714235Y-122672572D01*
X111705970Y-122695671D01*
X111695480Y-122717850D01*
X111682868Y-122738893D01*
X111668253Y-122758599D01*
X111651777Y-122776777D01*
X111633599Y-122793253D01*
X111613893Y-122807868D01*
X111592850Y-122820480D01*
X111570671Y-122830970D01*
X111547572Y-122839235D01*
X111523773Y-122845196D01*
X111499505Y-122848796D01*
X111475001Y-122850000D01*
X106524999Y-122850000D01*
X106500495Y-122848796D01*
X106476227Y-122845196D01*
X106452428Y-122839235D01*
X106429329Y-122830970D01*
X106407150Y-122820480D01*
X106386107Y-122807868D01*
X106366401Y-122793253D01*
X106348223Y-122776777D01*
X106331747Y-122758599D01*
X106317132Y-122738893D01*
X106304520Y-122717850D01*
X106294030Y-122695671D01*
X106285765Y-122672572D01*
X106279804Y-122648773D01*
X106276204Y-122624505D01*
X106275000Y-122600001D01*
X106275000Y-121174999D01*
X106276204Y-121150495D01*
X106279804Y-121126227D01*
X106285765Y-121102428D01*
X106294030Y-121079329D01*
X106304520Y-121057150D01*
X106317132Y-121036107D01*
X106331747Y-121016401D01*
X106348223Y-120998223D01*
X106366401Y-120981747D01*
X106386107Y-120967132D01*
X106407150Y-120954520D01*
X106429329Y-120944030D01*
X106452428Y-120935765D01*
X106476227Y-120929804D01*
X106500495Y-120926204D01*
X106524999Y-120925000D01*
X111475001Y-120925000D01*
X111499505Y-120926204D01*
X111499505Y-120926204D01*
G37*
D22*
X109000000Y-121887500D03*
D11*
G36*
X87424504Y-87876204D02*
G01*
X87448773Y-87879804D01*
X87472571Y-87885765D01*
X87495671Y-87894030D01*
X87517849Y-87904520D01*
X87538893Y-87917133D01*
X87558598Y-87931747D01*
X87576777Y-87948223D01*
X87593253Y-87966402D01*
X87607867Y-87986107D01*
X87620480Y-88007151D01*
X87630970Y-88029329D01*
X87639235Y-88052429D01*
X87645196Y-88076227D01*
X87648796Y-88100496D01*
X87650000Y-88125000D01*
X87650000Y-88950000D01*
X87648796Y-88974504D01*
X87645196Y-88998773D01*
X87639235Y-89022571D01*
X87630970Y-89045671D01*
X87620480Y-89067849D01*
X87607867Y-89088893D01*
X87593253Y-89108598D01*
X87576777Y-89126777D01*
X87558598Y-89143253D01*
X87538893Y-89157867D01*
X87517849Y-89170480D01*
X87495671Y-89180970D01*
X87472571Y-89189235D01*
X87448773Y-89195196D01*
X87424504Y-89198796D01*
X87400000Y-89200000D01*
X86600000Y-89200000D01*
X86575496Y-89198796D01*
X86551227Y-89195196D01*
X86527429Y-89189235D01*
X86504329Y-89180970D01*
X86482151Y-89170480D01*
X86461107Y-89157867D01*
X86441402Y-89143253D01*
X86423223Y-89126777D01*
X86406747Y-89108598D01*
X86392133Y-89088893D01*
X86379520Y-89067849D01*
X86369030Y-89045671D01*
X86360765Y-89022571D01*
X86354804Y-88998773D01*
X86351204Y-88974504D01*
X86350000Y-88950000D01*
X86350000Y-88125000D01*
X86351204Y-88100496D01*
X86354804Y-88076227D01*
X86360765Y-88052429D01*
X86369030Y-88029329D01*
X86379520Y-88007151D01*
X86392133Y-87986107D01*
X86406747Y-87966402D01*
X86423223Y-87948223D01*
X86441402Y-87931747D01*
X86461107Y-87917133D01*
X86482151Y-87904520D01*
X86504329Y-87894030D01*
X86527429Y-87885765D01*
X86551227Y-87879804D01*
X86575496Y-87876204D01*
X86600000Y-87875000D01*
X87400000Y-87875000D01*
X87424504Y-87876204D01*
X87424504Y-87876204D01*
G37*
D23*
X87000000Y-88537500D03*
D11*
G36*
X87424504Y-89801204D02*
G01*
X87448773Y-89804804D01*
X87472571Y-89810765D01*
X87495671Y-89819030D01*
X87517849Y-89829520D01*
X87538893Y-89842133D01*
X87558598Y-89856747D01*
X87576777Y-89873223D01*
X87593253Y-89891402D01*
X87607867Y-89911107D01*
X87620480Y-89932151D01*
X87630970Y-89954329D01*
X87639235Y-89977429D01*
X87645196Y-90001227D01*
X87648796Y-90025496D01*
X87650000Y-90050000D01*
X87650000Y-90875000D01*
X87648796Y-90899504D01*
X87645196Y-90923773D01*
X87639235Y-90947571D01*
X87630970Y-90970671D01*
X87620480Y-90992849D01*
X87607867Y-91013893D01*
X87593253Y-91033598D01*
X87576777Y-91051777D01*
X87558598Y-91068253D01*
X87538893Y-91082867D01*
X87517849Y-91095480D01*
X87495671Y-91105970D01*
X87472571Y-91114235D01*
X87448773Y-91120196D01*
X87424504Y-91123796D01*
X87400000Y-91125000D01*
X86600000Y-91125000D01*
X86575496Y-91123796D01*
X86551227Y-91120196D01*
X86527429Y-91114235D01*
X86504329Y-91105970D01*
X86482151Y-91095480D01*
X86461107Y-91082867D01*
X86441402Y-91068253D01*
X86423223Y-91051777D01*
X86406747Y-91033598D01*
X86392133Y-91013893D01*
X86379520Y-90992849D01*
X86369030Y-90970671D01*
X86360765Y-90947571D01*
X86354804Y-90923773D01*
X86351204Y-90899504D01*
X86350000Y-90875000D01*
X86350000Y-90050000D01*
X86351204Y-90025496D01*
X86354804Y-90001227D01*
X86360765Y-89977429D01*
X86369030Y-89954329D01*
X86379520Y-89932151D01*
X86392133Y-89911107D01*
X86406747Y-89891402D01*
X86423223Y-89873223D01*
X86441402Y-89856747D01*
X86461107Y-89842133D01*
X86482151Y-89829520D01*
X86504329Y-89819030D01*
X86527429Y-89810765D01*
X86551227Y-89804804D01*
X86575496Y-89801204D01*
X86600000Y-89800000D01*
X87400000Y-89800000D01*
X87424504Y-89801204D01*
X87424504Y-89801204D01*
G37*
D23*
X87000000Y-90462500D03*
D17*
X102250000Y-118500000D03*
X103200000Y-120500000D03*
X101300000Y-120500000D03*
D11*
G36*
X89705142Y-117801174D02*
G01*
X89728803Y-117804684D01*
X89752007Y-117810496D01*
X89774529Y-117818554D01*
X89796153Y-117828782D01*
X89816670Y-117841079D01*
X89835883Y-117855329D01*
X89853607Y-117871393D01*
X89869671Y-117889117D01*
X89883921Y-117908330D01*
X89896218Y-117928847D01*
X89906446Y-117950471D01*
X89914504Y-117972993D01*
X89920316Y-117996197D01*
X89923826Y-118019858D01*
X89925000Y-118043750D01*
X89925000Y-118956250D01*
X89923826Y-118980142D01*
X89920316Y-119003803D01*
X89914504Y-119027007D01*
X89906446Y-119049529D01*
X89896218Y-119071153D01*
X89883921Y-119091670D01*
X89869671Y-119110883D01*
X89853607Y-119128607D01*
X89835883Y-119144671D01*
X89816670Y-119158921D01*
X89796153Y-119171218D01*
X89774529Y-119181446D01*
X89752007Y-119189504D01*
X89728803Y-119195316D01*
X89705142Y-119198826D01*
X89681250Y-119200000D01*
X89193750Y-119200000D01*
X89169858Y-119198826D01*
X89146197Y-119195316D01*
X89122993Y-119189504D01*
X89100471Y-119181446D01*
X89078847Y-119171218D01*
X89058330Y-119158921D01*
X89039117Y-119144671D01*
X89021393Y-119128607D01*
X89005329Y-119110883D01*
X88991079Y-119091670D01*
X88978782Y-119071153D01*
X88968554Y-119049529D01*
X88960496Y-119027007D01*
X88954684Y-119003803D01*
X88951174Y-118980142D01*
X88950000Y-118956250D01*
X88950000Y-118043750D01*
X88951174Y-118019858D01*
X88954684Y-117996197D01*
X88960496Y-117972993D01*
X88968554Y-117950471D01*
X88978782Y-117928847D01*
X88991079Y-117908330D01*
X89005329Y-117889117D01*
X89021393Y-117871393D01*
X89039117Y-117855329D01*
X89058330Y-117841079D01*
X89078847Y-117828782D01*
X89100471Y-117818554D01*
X89122993Y-117810496D01*
X89146197Y-117804684D01*
X89169858Y-117801174D01*
X89193750Y-117800000D01*
X89681250Y-117800000D01*
X89705142Y-117801174D01*
X89705142Y-117801174D01*
G37*
D14*
X89437500Y-118500000D03*
D11*
G36*
X87830142Y-117801174D02*
G01*
X87853803Y-117804684D01*
X87877007Y-117810496D01*
X87899529Y-117818554D01*
X87921153Y-117828782D01*
X87941670Y-117841079D01*
X87960883Y-117855329D01*
X87978607Y-117871393D01*
X87994671Y-117889117D01*
X88008921Y-117908330D01*
X88021218Y-117928847D01*
X88031446Y-117950471D01*
X88039504Y-117972993D01*
X88045316Y-117996197D01*
X88048826Y-118019858D01*
X88050000Y-118043750D01*
X88050000Y-118956250D01*
X88048826Y-118980142D01*
X88045316Y-119003803D01*
X88039504Y-119027007D01*
X88031446Y-119049529D01*
X88021218Y-119071153D01*
X88008921Y-119091670D01*
X87994671Y-119110883D01*
X87978607Y-119128607D01*
X87960883Y-119144671D01*
X87941670Y-119158921D01*
X87921153Y-119171218D01*
X87899529Y-119181446D01*
X87877007Y-119189504D01*
X87853803Y-119195316D01*
X87830142Y-119198826D01*
X87806250Y-119200000D01*
X87318750Y-119200000D01*
X87294858Y-119198826D01*
X87271197Y-119195316D01*
X87247993Y-119189504D01*
X87225471Y-119181446D01*
X87203847Y-119171218D01*
X87183330Y-119158921D01*
X87164117Y-119144671D01*
X87146393Y-119128607D01*
X87130329Y-119110883D01*
X87116079Y-119091670D01*
X87103782Y-119071153D01*
X87093554Y-119049529D01*
X87085496Y-119027007D01*
X87079684Y-119003803D01*
X87076174Y-118980142D01*
X87075000Y-118956250D01*
X87075000Y-118043750D01*
X87076174Y-118019858D01*
X87079684Y-117996197D01*
X87085496Y-117972993D01*
X87093554Y-117950471D01*
X87103782Y-117928847D01*
X87116079Y-117908330D01*
X87130329Y-117889117D01*
X87146393Y-117871393D01*
X87164117Y-117855329D01*
X87183330Y-117841079D01*
X87203847Y-117828782D01*
X87225471Y-117818554D01*
X87247993Y-117810496D01*
X87271197Y-117804684D01*
X87294858Y-117801174D01*
X87318750Y-117800000D01*
X87806250Y-117800000D01*
X87830142Y-117801174D01*
X87830142Y-117801174D01*
G37*
D14*
X87562500Y-118500000D03*
D11*
G36*
X94205142Y-119801174D02*
G01*
X94228803Y-119804684D01*
X94252007Y-119810496D01*
X94274529Y-119818554D01*
X94296153Y-119828782D01*
X94316670Y-119841079D01*
X94335883Y-119855329D01*
X94353607Y-119871393D01*
X94369671Y-119889117D01*
X94383921Y-119908330D01*
X94396218Y-119928847D01*
X94406446Y-119950471D01*
X94414504Y-119972993D01*
X94420316Y-119996197D01*
X94423826Y-120019858D01*
X94425000Y-120043750D01*
X94425000Y-120956250D01*
X94423826Y-120980142D01*
X94420316Y-121003803D01*
X94414504Y-121027007D01*
X94406446Y-121049529D01*
X94396218Y-121071153D01*
X94383921Y-121091670D01*
X94369671Y-121110883D01*
X94353607Y-121128607D01*
X94335883Y-121144671D01*
X94316670Y-121158921D01*
X94296153Y-121171218D01*
X94274529Y-121181446D01*
X94252007Y-121189504D01*
X94228803Y-121195316D01*
X94205142Y-121198826D01*
X94181250Y-121200000D01*
X93693750Y-121200000D01*
X93669858Y-121198826D01*
X93646197Y-121195316D01*
X93622993Y-121189504D01*
X93600471Y-121181446D01*
X93578847Y-121171218D01*
X93558330Y-121158921D01*
X93539117Y-121144671D01*
X93521393Y-121128607D01*
X93505329Y-121110883D01*
X93491079Y-121091670D01*
X93478782Y-121071153D01*
X93468554Y-121049529D01*
X93460496Y-121027007D01*
X93454684Y-121003803D01*
X93451174Y-120980142D01*
X93450000Y-120956250D01*
X93450000Y-120043750D01*
X93451174Y-120019858D01*
X93454684Y-119996197D01*
X93460496Y-119972993D01*
X93468554Y-119950471D01*
X93478782Y-119928847D01*
X93491079Y-119908330D01*
X93505329Y-119889117D01*
X93521393Y-119871393D01*
X93539117Y-119855329D01*
X93558330Y-119841079D01*
X93578847Y-119828782D01*
X93600471Y-119818554D01*
X93622993Y-119810496D01*
X93646197Y-119804684D01*
X93669858Y-119801174D01*
X93693750Y-119800000D01*
X94181250Y-119800000D01*
X94205142Y-119801174D01*
X94205142Y-119801174D01*
G37*
D14*
X93937500Y-120500000D03*
D11*
G36*
X92330142Y-119801174D02*
G01*
X92353803Y-119804684D01*
X92377007Y-119810496D01*
X92399529Y-119818554D01*
X92421153Y-119828782D01*
X92441670Y-119841079D01*
X92460883Y-119855329D01*
X92478607Y-119871393D01*
X92494671Y-119889117D01*
X92508921Y-119908330D01*
X92521218Y-119928847D01*
X92531446Y-119950471D01*
X92539504Y-119972993D01*
X92545316Y-119996197D01*
X92548826Y-120019858D01*
X92550000Y-120043750D01*
X92550000Y-120956250D01*
X92548826Y-120980142D01*
X92545316Y-121003803D01*
X92539504Y-121027007D01*
X92531446Y-121049529D01*
X92521218Y-121071153D01*
X92508921Y-121091670D01*
X92494671Y-121110883D01*
X92478607Y-121128607D01*
X92460883Y-121144671D01*
X92441670Y-121158921D01*
X92421153Y-121171218D01*
X92399529Y-121181446D01*
X92377007Y-121189504D01*
X92353803Y-121195316D01*
X92330142Y-121198826D01*
X92306250Y-121200000D01*
X91818750Y-121200000D01*
X91794858Y-121198826D01*
X91771197Y-121195316D01*
X91747993Y-121189504D01*
X91725471Y-121181446D01*
X91703847Y-121171218D01*
X91683330Y-121158921D01*
X91664117Y-121144671D01*
X91646393Y-121128607D01*
X91630329Y-121110883D01*
X91616079Y-121091670D01*
X91603782Y-121071153D01*
X91593554Y-121049529D01*
X91585496Y-121027007D01*
X91579684Y-121003803D01*
X91576174Y-120980142D01*
X91575000Y-120956250D01*
X91575000Y-120043750D01*
X91576174Y-120019858D01*
X91579684Y-119996197D01*
X91585496Y-119972993D01*
X91593554Y-119950471D01*
X91603782Y-119928847D01*
X91616079Y-119908330D01*
X91630329Y-119889117D01*
X91646393Y-119871393D01*
X91664117Y-119855329D01*
X91683330Y-119841079D01*
X91703847Y-119828782D01*
X91725471Y-119818554D01*
X91747993Y-119810496D01*
X91771197Y-119804684D01*
X91794858Y-119801174D01*
X91818750Y-119800000D01*
X92306250Y-119800000D01*
X92330142Y-119801174D01*
X92330142Y-119801174D01*
G37*
D14*
X92062500Y-120500000D03*
D11*
G36*
X99480142Y-119951174D02*
G01*
X99503803Y-119954684D01*
X99527007Y-119960496D01*
X99549529Y-119968554D01*
X99571153Y-119978782D01*
X99591670Y-119991079D01*
X99610883Y-120005329D01*
X99628607Y-120021393D01*
X99644671Y-120039117D01*
X99658921Y-120058330D01*
X99671218Y-120078847D01*
X99681446Y-120100471D01*
X99689504Y-120122993D01*
X99695316Y-120146197D01*
X99698826Y-120169858D01*
X99700000Y-120193750D01*
X99700000Y-120681250D01*
X99698826Y-120705142D01*
X99695316Y-120728803D01*
X99689504Y-120752007D01*
X99681446Y-120774529D01*
X99671218Y-120796153D01*
X99658921Y-120816670D01*
X99644671Y-120835883D01*
X99628607Y-120853607D01*
X99610883Y-120869671D01*
X99591670Y-120883921D01*
X99571153Y-120896218D01*
X99549529Y-120906446D01*
X99527007Y-120914504D01*
X99503803Y-120920316D01*
X99480142Y-120923826D01*
X99456250Y-120925000D01*
X98543750Y-120925000D01*
X98519858Y-120923826D01*
X98496197Y-120920316D01*
X98472993Y-120914504D01*
X98450471Y-120906446D01*
X98428847Y-120896218D01*
X98408330Y-120883921D01*
X98389117Y-120869671D01*
X98371393Y-120853607D01*
X98355329Y-120835883D01*
X98341079Y-120816670D01*
X98328782Y-120796153D01*
X98318554Y-120774529D01*
X98310496Y-120752007D01*
X98304684Y-120728803D01*
X98301174Y-120705142D01*
X98300000Y-120681250D01*
X98300000Y-120193750D01*
X98301174Y-120169858D01*
X98304684Y-120146197D01*
X98310496Y-120122993D01*
X98318554Y-120100471D01*
X98328782Y-120078847D01*
X98341079Y-120058330D01*
X98355329Y-120039117D01*
X98371393Y-120021393D01*
X98389117Y-120005329D01*
X98408330Y-119991079D01*
X98428847Y-119978782D01*
X98450471Y-119968554D01*
X98472993Y-119960496D01*
X98496197Y-119954684D01*
X98519858Y-119951174D01*
X98543750Y-119950000D01*
X99456250Y-119950000D01*
X99480142Y-119951174D01*
X99480142Y-119951174D01*
G37*
D14*
X99000000Y-120437500D03*
D11*
G36*
X99480142Y-118076174D02*
G01*
X99503803Y-118079684D01*
X99527007Y-118085496D01*
X99549529Y-118093554D01*
X99571153Y-118103782D01*
X99591670Y-118116079D01*
X99610883Y-118130329D01*
X99628607Y-118146393D01*
X99644671Y-118164117D01*
X99658921Y-118183330D01*
X99671218Y-118203847D01*
X99681446Y-118225471D01*
X99689504Y-118247993D01*
X99695316Y-118271197D01*
X99698826Y-118294858D01*
X99700000Y-118318750D01*
X99700000Y-118806250D01*
X99698826Y-118830142D01*
X99695316Y-118853803D01*
X99689504Y-118877007D01*
X99681446Y-118899529D01*
X99671218Y-118921153D01*
X99658921Y-118941670D01*
X99644671Y-118960883D01*
X99628607Y-118978607D01*
X99610883Y-118994671D01*
X99591670Y-119008921D01*
X99571153Y-119021218D01*
X99549529Y-119031446D01*
X99527007Y-119039504D01*
X99503803Y-119045316D01*
X99480142Y-119048826D01*
X99456250Y-119050000D01*
X98543750Y-119050000D01*
X98519858Y-119048826D01*
X98496197Y-119045316D01*
X98472993Y-119039504D01*
X98450471Y-119031446D01*
X98428847Y-119021218D01*
X98408330Y-119008921D01*
X98389117Y-118994671D01*
X98371393Y-118978607D01*
X98355329Y-118960883D01*
X98341079Y-118941670D01*
X98328782Y-118921153D01*
X98318554Y-118899529D01*
X98310496Y-118877007D01*
X98304684Y-118853803D01*
X98301174Y-118830142D01*
X98300000Y-118806250D01*
X98300000Y-118318750D01*
X98301174Y-118294858D01*
X98304684Y-118271197D01*
X98310496Y-118247993D01*
X98318554Y-118225471D01*
X98328782Y-118203847D01*
X98341079Y-118183330D01*
X98355329Y-118164117D01*
X98371393Y-118146393D01*
X98389117Y-118130329D01*
X98408330Y-118116079D01*
X98428847Y-118103782D01*
X98450471Y-118093554D01*
X98472993Y-118085496D01*
X98496197Y-118079684D01*
X98519858Y-118076174D01*
X98543750Y-118075000D01*
X99456250Y-118075000D01*
X99480142Y-118076174D01*
X99480142Y-118076174D01*
G37*
D14*
X99000000Y-118562500D03*
D24*
X90500000Y-118500000D03*
X95250000Y-117500000D03*
X100000000Y-116500000D03*
X95000000Y-120500000D03*
X100312500Y-120437500D03*
X88062500Y-100437500D03*
X95062500Y-100437500D03*
X102000000Y-100500000D03*
X109062500Y-100437500D03*
X84750000Y-87500000D03*
X108000000Y-88500000D03*
X98000000Y-128000000D03*
D25*
X100987500Y-120437500D02*
X101050000Y-120500000D01*
X100312500Y-120437500D02*
X100987500Y-120437500D01*
X88062500Y-99000000D02*
X88062500Y-100437500D01*
X109062500Y-99000000D02*
X109062500Y-100437500D01*
X102000000Y-99000000D02*
X102000000Y-100500000D01*
X95062500Y-99000000D02*
X95062500Y-100437500D01*
X84750000Y-88562500D02*
X84750000Y-87500000D01*
D26*
X88050000Y-100450000D02*
X88062500Y-100437500D01*
X88050000Y-101500000D02*
X88050000Y-100450000D01*
X95050000Y-100450000D02*
X95062500Y-100437500D01*
X95050000Y-101500000D02*
X95050000Y-100450000D01*
X102050000Y-100550000D02*
X102000000Y-100500000D01*
X102050000Y-101500000D02*
X102050000Y-100550000D01*
X109050000Y-100450000D02*
X109062500Y-100437500D01*
X109050000Y-101500000D02*
X109050000Y-100450000D01*
X89437500Y-118500000D02*
X90500000Y-118500000D01*
X94100000Y-117500000D02*
X95250000Y-117500000D01*
X95000000Y-120500000D02*
X93937500Y-120500000D01*
X98937500Y-116500000D02*
X100000000Y-116500000D01*
X99000000Y-120437500D02*
X100312500Y-120437500D01*
X100375000Y-120500000D02*
X100312500Y-120437500D01*
X101300000Y-120500000D02*
X100375000Y-120500000D01*
D25*
X109000000Y-88550000D02*
X108050000Y-88550000D01*
X108050000Y-88550000D02*
X108000000Y-88500000D01*
X97000000Y-127950000D02*
X97950000Y-127950000D01*
X97950000Y-127950000D02*
X98000000Y-128000000D01*
X97000000Y-116562500D02*
X97062500Y-116500000D01*
X97000000Y-118562500D02*
X97000000Y-116562500D01*
X97012500Y-116550000D02*
X97062500Y-116500000D01*
X94600000Y-116550000D02*
X97012500Y-116550000D01*
X97000000Y-118562500D02*
X99000000Y-118562500D01*
X101937500Y-118562500D02*
X102000000Y-118500000D01*
X99000000Y-118562500D02*
X101937500Y-118562500D01*
D26*
X91900000Y-118450000D02*
X91900000Y-119150000D01*
X92062500Y-119312500D02*
X92062500Y-120500000D01*
X91900000Y-119150000D02*
X92062500Y-119312500D01*
X87537500Y-90462500D02*
X87000000Y-90462500D01*
X111000000Y-88000000D02*
X110000000Y-87000000D01*
X111000000Y-89500000D02*
X111000000Y-88000000D01*
X110000000Y-87000000D02*
X89000000Y-87000000D01*
X89000000Y-87000000D02*
X88500000Y-87500000D01*
X88500000Y-87500000D02*
X88500000Y-89500000D01*
X88500000Y-89500000D02*
X87537500Y-90462500D01*
X86000000Y-120500000D02*
X92062500Y-120500000D01*
X85000000Y-119500000D02*
X86000000Y-120500000D01*
X85000000Y-92500000D02*
X85000000Y-119500000D01*
X87000000Y-90462500D02*
X87000000Y-90500000D01*
X87000000Y-90500000D02*
X85000000Y-92500000D01*
D25*
X87562500Y-116500000D02*
X87562500Y-118500000D01*
X87562500Y-114562500D02*
X86000000Y-113000000D01*
X87562500Y-116500000D02*
X87562500Y-114562500D01*
X86000000Y-113000000D02*
X86000000Y-95000000D01*
X87500000Y-93500000D02*
X92500000Y-93500000D01*
X86000000Y-95000000D02*
X87500000Y-93500000D01*
X92500000Y-93500000D02*
X93300000Y-92700000D01*
X93300000Y-92700000D02*
X93300000Y-89500000D01*
X85100000Y-90437500D02*
X84750000Y-90437500D01*
X87000000Y-88537500D02*
X85100000Y-90437500D01*
D27*
X108750000Y-114862500D02*
X109000000Y-115112500D01*
X102750000Y-112250000D02*
X108750000Y-112250000D01*
X108750000Y-109450000D02*
X108750000Y-112250000D01*
X108750000Y-112250000D02*
X108750000Y-114862500D01*
X97400000Y-112250000D02*
X102750000Y-112250000D01*
X88750000Y-112250000D02*
X97400000Y-112250000D01*
X87750000Y-109450000D02*
X87750000Y-111250000D01*
X87750000Y-111250000D02*
X88750000Y-112250000D01*
X94750000Y-112250000D02*
X97400000Y-112250000D01*
X94750000Y-109450000D02*
X94750000Y-112250000D01*
X101750000Y-112250000D02*
X102750000Y-112250000D01*
X101750000Y-109450000D02*
X101750000Y-112250000D01*
X109000000Y-124000000D02*
X109000000Y-121887500D01*
X110300000Y-126500000D02*
X110300000Y-125300000D01*
X110300000Y-125300000D02*
X109000000Y-124000000D01*
X91000000Y-126500000D02*
X92500000Y-126500000D01*
X93000000Y-127000000D02*
X95000000Y-127000000D01*
X92500000Y-126500000D02*
X93000000Y-127000000D01*
D25*
X94500000Y-94500000D02*
X95840000Y-93160000D01*
X89000000Y-94500000D02*
X94500000Y-94500000D01*
X95840000Y-93160000D02*
X95840000Y-89500000D01*
X88062500Y-97000000D02*
X88062500Y-95437500D01*
X88062500Y-95437500D02*
X89000000Y-94500000D01*
X98380000Y-94120000D02*
X98380000Y-89500000D01*
X98000000Y-94500000D02*
X98380000Y-94120000D01*
X96000000Y-94500000D02*
X98000000Y-94500000D01*
X95062500Y-97000000D02*
X95062500Y-95437500D01*
X95062500Y-95437500D02*
X96000000Y-94500000D01*
X100920000Y-93920000D02*
X100920000Y-89500000D01*
X102062500Y-97000000D02*
X102062500Y-95062500D01*
X102062500Y-95062500D02*
X100920000Y-93920000D01*
X104500000Y-94500000D02*
X103460000Y-93460000D01*
X103460000Y-93460000D02*
X103460000Y-89500000D01*
X108000000Y-94500000D02*
X104500000Y-94500000D01*
X109062500Y-97000000D02*
X109062500Y-95562500D01*
X109062500Y-95562500D02*
X108000000Y-94500000D01*
D27*
X103540000Y-126500000D02*
X107500000Y-126500000D01*
D26*
X89000000Y-103500000D02*
X89000000Y-106550000D01*
D25*
X89937500Y-99000000D02*
X89937500Y-97000000D01*
X89950000Y-99012500D02*
X89937500Y-99000000D01*
X89950000Y-101500000D02*
X89950000Y-99012500D01*
D26*
X96000000Y-103500000D02*
X96000000Y-106550000D01*
D25*
X96937500Y-99000000D02*
X96937500Y-97000000D01*
X96950000Y-99012500D02*
X96937500Y-99000000D01*
X96950000Y-101500000D02*
X96950000Y-99012500D01*
D26*
X103000000Y-103500000D02*
X103000000Y-106550000D01*
D25*
X103875000Y-97062500D02*
X103937500Y-97000000D01*
X103875000Y-99000000D02*
X103875000Y-97062500D01*
X103950000Y-99075000D02*
X103875000Y-99000000D01*
X103950000Y-101500000D02*
X103950000Y-99075000D01*
D26*
X110000000Y-103500000D02*
X110000000Y-106550000D01*
D25*
X110937500Y-99000000D02*
X110937500Y-97000000D01*
X110950000Y-99012500D02*
X110937500Y-99000000D01*
X110950000Y-101500000D02*
X110950000Y-99012500D01*
X93320000Y-118450000D02*
X93000000Y-118130000D01*
X94100000Y-118450000D02*
X93320000Y-118450000D01*
X93000000Y-118130000D02*
X93000000Y-117000000D01*
X93000000Y-117000000D02*
X92500000Y-116500000D01*
X92450000Y-116550000D02*
X91900000Y-116550000D01*
X92500000Y-116500000D02*
X92450000Y-116550000D01*
X91850000Y-116500000D02*
X91900000Y-116550000D01*
X89487500Y-116550000D02*
X89437500Y-116500000D01*
X91900000Y-116550000D02*
X89487500Y-116550000D01*
D26*
X107250000Y-89500000D02*
X106000000Y-89500000D01*
X109000000Y-90450000D02*
X108200000Y-90450000D01*
X108200000Y-90450000D02*
X107250000Y-89500000D01*
D27*
X97000000Y-126050000D02*
X98550000Y-126050000D01*
X99000000Y-126500000D02*
X101000000Y-126500000D01*
X98550000Y-126050000D02*
X99000000Y-126500000D01*
D25*
X97000000Y-120437500D02*
X97000000Y-126050000D01*
M02*
